<?xml version="1.0" encoding="UTF-8"?>
<svg id="_Слой_2" data-name="Слой 2" xmlns="http://www.w3.org/2000/svg" viewBox="0 0 750.91 544.91">
  <defs>
    <style>
      .cls-1 {
        fill: #ffd372;
        fill-rule: evenodd;
      }
    </style>
  </defs>
  <g id="_Слой_1-2" data-name="Слой 1">
    <g id="background">
      <path class="cls-1" d="M158.16,0C81.32,0,19.02,62.29,19.02,139.14v174.2c-11.72,11.27-19.02,27.09-19.02,44.63s7.3,33.37,19.02,44.63v81.37H539.42v60.93h211.49V0H158.16ZM61.93,414.59c-31.26,0-56.61-25.34-56.61-56.61s25.34-56.61,56.61-56.61,56.61,25.34,56.61,56.61-25.34,56.61-56.61,56.61ZM441.63,236.23c0,31.74-25.73,57.47-57.47,57.47h-10.72v-10.72c0-31.74,25.73-57.47,57.47-57.47h10.72v10.72Zm80.17,0c0,31.74-25.73,57.47-57.47,57.47h-10.72v-10.72c0-31.74,25.73-57.47,57.47-57.47h10.72v10.72Z"/>
    </g>
  </g>
</svg>