<?xml version="1.0" encoding="utf-8"?>
<!-- Generator: Adobe Illustrator 26.4.1, SVG Export Plug-In . SVG Version: 6.00 Build 0)  -->
<svg version="1.1" id="_Слой_2" xmlns="http://www.w3.org/2000/svg" xmlns:xlink="http://www.w3.org/1999/xlink" x="0px"
	 y="0px" viewBox="0 0 1120.6 788.6" style="enable-background:new 0 0 1120.6 788.6;" xml:space="preserve">
<style type="text/css">
	.st0{fill:#FF0000;}
	.st1{fill-rule:evenodd;clip-rule:evenodd;fill:#FF0000;}
</style>
<g id="_1_этаж">
	<g id="objects">
		<rect id="shop-FS" x="684.8" y="4.2" class="st0" width="70.4" height="178.6"/>
		<polygon id="shop-7" class="st1" points="239.8,145.4 239.8,249.5 180.1,249.2 180.1,145.2 		"/>
		<path id="shop-13" class="st1" d="M614,405.9c-0.8,13.1-13.3,23.4-30.2,22.7H464.7V305.4h43.4c27.5-0.1,54-1.3,82.9,0
			c0,0,10.2,1.9,17,12c6.7,10.1,6.1,29.3,6.1,29.3l-59.8,0v21.6H614C614,368.2,614.1,404.2,614,405.9L614,405.9z"/>
		<rect id="shop-2" x="389.4" y="305.5" class="st0" width="72.9" height="123.2"/>
		<polygon id="shop-6" class="st1" points="388.1,428.7 388.1,428.7 316.9,428.7 316.9,305.5 388.1,305.5 388.1,305.5 		"/>
		<path id="shop-14" class="st1" d="M191.6,428.7c-17.5,0-28-9.2-28-26.5v-34h76.7v60.5H191.6L191.6,428.7z"/>
		<rect id="shop-A" x="280.2" y="305.4" class="st0" width="34.7" height="60.2"/>
		<rect id="shop-20" x="202" y="305.5" class="st0" width="38.4" height="41.1"/>
		<path id="shop-27" class="st1" d="M163.7,346.6v-20.3c1.1-13.8,19.9-22.4,36.6-20.8v41.1L163.7,346.6L163.7,346.6z"/>
		<rect id="shop-MB" x="682.8" y="264.3" class="st0" width="72.4" height="27.4"/>
		<rect id="shop-28" x="682.8" y="293.6" class="st0" width="72.4" height="35.6"/>
		<rect id="shop-25" x="682.8" y="332.3" class="st0" width="72.4" height="35.8"/>
		<polygon id="shop-3" class="st1" points="755.2,427.3 682.8,428 682.8,370.9 755.2,370.9 		"/>
		<polygon id="shop-FS-2" class="st1" points="1120.4,548.8 760.5,548.8 760.5,488.7 1120.6,486.5 		"/>
		<rect id="shop-D" x="728" y="250.8" class="st0" width="27.2" height="11.5"/>
		<rect id="shop-WC" x="684.8" y="187.6" class="st0" width="70.4" height="61.1"/>
		<path id="shop-22" class="st1" d="M755.3,548.8h-211v-60.6l211,0.5V548.8L755.3,548.8z M79.3,704.4L51,704.2v-29.9
			c0,0,1.4-3.1,3.1-4.5c1.7-1.4,5.1-2.8,6.3-2.8s5.2,0,5.2,0h13.7V704.4z M79.3,490.7v118.9H62.8c0,0-4.9-0.9-6.7-2.5
			s-4.1-2.3-5.1-5.6s0-69.7,0-69.7h4l-0.2-41.1L79.3,490.7L79.3,490.7z M543.5,698.7v89.9H98.8v-89.9H543.5z M527.5,631.8
			c0,0-0.4,18.3-12.4,28.9c-5.2,4.6-8.1,7.7-13.5,11.2c-6.2,3.2-8.3,5.1-20.7,7c-48.6,0.5-307.3,0-307.3,0c-6.1,0.3-12.2,0.7-18.3,0
			c-15.5-1.9-27.3-2.5-39.8-15.5c-6.2-6.5-12.6-16-14.8-25.3c-1-4.3,0.3-22.1,0-41.3c-0.3-22.4,0-46.3,0-46.3s0.7-14.7,7.7-23.9
			c3.8-5.1,8.6-9.5,14.3-13.1c11.2-6.8,25.8-10.5,41.8-10.1c9.9,0.3,305.1,0,305.1,0s18.6,1,29.7,6.8c11.2,5.8,26.5,18.8,28.2,34
			c1.8,15.2,0,72,0,72L527.5,631.8L527.5,631.8z"/>
		<rect id="shop-S" x="163.7" y="348.5" class="st0" width="76.7" height="17.2"/>
		<rect id="shop-FS-4" x="242.4" y="305.4" class="st0" width="35.8" height="60.2"/>
		<rect id="shop-1" x="280.2" y="368.2" class="st0" width="34.7" height="60.5"/>
		<rect id="shop-26" x="242.4" y="368.2" class="st0" width="35.8" height="60.5"/>
		<rect id="shop-5" x="245.9" y="4.2" class="st0" width="435.4" height="244.5"/>
		<rect id="shop-P" x="23.1" y="140.7" class="st0" width="43.9" height="108.8"/>
		<rect id="shop-32" x="61.9" y="468" class="st0" width="20.2" height="20.2"/>
		<rect id="shop-15" x="84.3" y="462.3" class="st0" width="41.5" height="25.9"/>
		<rect id="shop-16" x="208.9" y="454" class="st0" width="31.5" height="16.7"/>
		<rect id="shop-18" x="320.9" y="450.4" class="st0" width="32" height="17.5"/>
		<rect id="shop-29" x="354.1" y="450.4" class="st0" width="32" height="17.5"/>
		<rect id="shop-S-2" x="316.9" y="469.5" class="st0" width="106.5" height="18.7"/>
		<rect id="shop-19" x="387.4" y="450.4" class="st0" width="32" height="17.5"/>
		<rect id="shop-8" x="513" y="450.4" class="st0" width="27.6" height="17.5"/>
		<rect id="shop-9" x="561.9" y="450.4" class="st0" width="27.6" height="17.5"/>
		<rect id="shop-30" x="606.4" y="470.1" class="st0" width="28.4" height="17.5"/>
		<rect id="shop-10" x="636.6" y="398.4" class="st0" width="26.3" height="17.5"/>
		<rect id="shop-4" x="636.6" y="329.3" class="st0" width="26.3" height="17.5"/>
		<rect id="shop-31" x="641.7" y="274.5" class="st0" width="21.2" height="25.9"/>
		<rect id="shop-21" x="525.4" y="259.2" class="st0" width="25.9" height="25.9"/>
		<rect id="shop-11" x="321" y="259.2" class="st0" width="25.9" height="25.9"/>
		<rect id="shop-17" x="214.5" y="259.2" class="st0" width="25.9" height="25.9"/>
		<path id="shop-24" class="st0" d="M806.5,304.7h112v107.6h-112L806.5,304.7L806.5,304.7z M942.9,304.7v107.6h116.3v28.8l60.9-0.6
			V304.7H942.9L942.9,304.7z"/>
		<polygon id="shop-23" class="st0" points="1120.2,4.2 759.4,4.2 759.4,301.9 1120.2,301.7 		"/>
		<rect id="shop-S-3" x="555.8" y="348.5" class="st0" width="58.2" height="17.2"/>
		<path id="shop-12" class="st0" d="M239.8,4.2h-87.7c-46.9,5.6-65.5,20.3-86.6,38.7s-35.1,52.4-38.3,64.8s-4.1,29.2-4.1,29.2
			l47.3,0.2l0.1,41.8h26.8v70.6l69.1-0.1V124.8l73.4-0.3v0C240.5,124,239.9,4.2,239.8,4.2L239.8,4.2z"/>
		<polygon id="shop-S-4" class="st0" points="70.6,180.9 70.8,249.5 95.4,249.5 95.4,180.9 		"/>
	</g>
</g>
</svg>
