<?xml version="1.0" encoding="UTF-8"?>
<svg id="_Слой_2" data-name="Слой 2" xmlns="http://www.w3.org/2000/svg" viewBox="0 0 1124.64 792.04">
  <defs>
    <style>
      .cls-1 {
        fill: #514122;
      }
    </style>
  </defs>
  <g id="_1_этаж" data-name="1 этаж">
    <g id="walls">
      <path id="walls-2" data-name="walls" class="cls-1" d="M1120.64,0H162.16C123.93,0,87.98,14.89,60.95,41.92c-27.04,27.04-41.92,62.98-41.92,101.21v172.53c-12.28,12.42-19.02,28.8-19.02,46.31s6.74,33.89,19.02,46.31v383.76H547.42v-239.13h577.22V0h-4ZM543.42,788.04H23.02V490.63H543.42v297.41Zm577.22-239.13H547.42v-62.28H23.02v-80.02c-11.72-11.27-19.02-27.09-19.02-44.63s7.3-33.37,19.02-44.63V143.14C23.02,66.29,85.32,4,162.16,4h958.48V548.91Z"/>
    </g>
  </g>
</svg>