<?xml version="1.0" encoding="utf-8"?>
<!-- Generator: Adobe Illustrator 26.4.1, SVG Export Plug-In . SVG Version: 6.00 Build 0)  -->
<svg version="1.1" id="_Слой_2" xmlns="http://www.w3.org/2000/svg" xmlns:xlink="http://www.w3.org/1999/xlink" x="0px"
	 y="0px" viewBox="0 0 755 788" style="enable-background:new 0 0 755 788;" xml:space="preserve">
<style type="text/css">
	.st0{fill-rule:evenodd;clip-rule:evenodd;fill:#FF0000;}
	.st1{fill:#FF0000;}
</style>
<g id="_2_этаж">
	<g id="objects">
		<polygon id="shop-35" class="st0" points="227.6,305.8 227.6,366.8 164.3,366.8 169.2,305.2 		"/>
		<path id="shop-6" class="st0" d="M227.6,368.2V428h-56.7c0,0-4.2-18-4.6-25.5c-0.5-7.4-2.1-34.4-2.1-34.4H227.6L227.6,368.2z"/>
		<polygon id="shop-4" class="st0" points="315.9,305 315.9,366.8 229.4,366.8 229.4,305.8 		"/>
		<rect id="shop-7" x="229.4" y="368.2" class="st1" width="86.5" height="59.8"/>
		<path id="shop-8" class="st0" d="M317.5,305c0,0,9.3,13.9,25.3,23.7c16.1,9.8,34,11,34,11h13.5V428h-72.8L317.5,305L317.5,305z"/>
		<rect id="shop-5" x="391.9" y="339.7" class="st1" width="70.3" height="88.3"/>
		<path id="shop-14" class="st0" d="M507.5,386.6c0,0,0.2,22.2,0,24.2c-0.3,2-0.3,5.8-7.6,11.1c-7.3,5.3-13.1,5.8-15,6s-21,0-21,0
			v-41.4H507.5L507.5,386.6z"/>
		<path id="shop-13" class="st0" d="M507.5,384.9v-28.8c-0.5-3.2-1.9-6.2-4.2-9c-4.2-4.6-13.7-7.5-18.2-7.4h-21.2v45.1H507.5
			L507.5,384.9z"/>
		<polygon id="shop-10" class="st0" points="242.5,188.2 242.5,249.1 137.1,248.7 137,188.2 		"/>
		<path id="shop-FS-2" class="st0" d="M463.2,108.1c0,0,7.9-0.2,19.1,4.7c11.2,4.9,17.2,13.9,19.3,20.1c2.2,6.3,1.5,37.1,1.5,37.1
			h-39.9V108.1z"/>
		<path id="shop-9" class="st0" d="M242.5,124.8v61.9H137c0,0,3.5-28,8.2-36.2c8.8-15.3,20.9-26.9,43.4-30.4
			C190.6,119.9,242.5,124.8,242.5,124.8L242.5,124.8L242.5,124.8z"/>
		<path id="shop-2" class="st0" d="M755,304.6l-87,0.2l-0.9-40h-79.2c-1.6,12.2-4.4,24.4-8.4,36.3c-6.9,20.2-16.5,39.6-23.3,47.2
			c-6.8,7.6-13.2,16-13.2,16v122.2l212.2,0.9V304.6L755,304.6z"/>
		<rect id="shop-D" x="725.6" y="249" class="st1" width="29.4" height="53.2"/>
		<rect id="shop-WCM" x="686.1" y="193" class="st1" width="68.9" height="53.5"/>
		<rect id="shop-NM" x="697" y="140.1" class="st1" width="58" height="50.8"/>
		<rect id="shop-NW" x="697" y="85.3" class="st1" width="58" height="50.7"/>
		<rect id="shop-WCW" x="697" y="59.8" class="st1" width="58" height="23.3"/>
		<path id="shop-1" class="st0" d="M683.4,4.3v173.9l-16.1-0.1l0.1,70.3h-79.5c0,0-4.4-13-5.7-16.1s-6.4-10.4-9.3-14
			c-2.9-3.5-8.5-10-14.2-14.8c-5.7-4.7-23.1-15.4-23.1-15.4l-4.9-30.1c0,0-2.3-28.7-2.3-30.3s-1.3-10.7-7.5-19.6
			c-6-8.8-12.3-16.3-21.6-23c-9.2-6.7-15.7-9.8-17.4-10.7s-18.6-6.5-18.6-6.5V4.2L683.4,4.3L683.4,4.3L683.4,4.3z"/>
		<path id="shop-FS-3" class="st0" d="M503.9,194c-0.3,9.4-9.6,18.6-19,19.4c-3.9,0.4-21.6-0.1-21.6-0.1v-41.4h39.9L503.9,194
			L503.9,194z"/>
		<path id="shop-11" class="st0" d="M95.7,184.1c0,0,0.5-34.6,0-37.4s0.4-10-7.5-16.1c-7.9-6.1-20.6-7.4-23.8-7.3
			s-40.9,0.6-40.9,0.6v60.3H95.7z"/>
		<path id="shop-FS-4" class="st0" d="M375.4,67.8H234c-12.8,0.1-33.9,4.1-48.9-6.1c-7.1-4.9-13.7-11.5-15.5-18
			c-1.8-6.4-1.1-39.2-1.1-39.2L375,4.3L375.4,67.8L375.4,67.8L375.4,67.8z"/>
		<path id="shop-18" class="st0" d="M95.7,232.2v22.3c0,12.2-14.7,15.5-20.2,18.1c-9.8,4.5-26.6,6.2-32,7.2c-5.5,1-20,2.1-20,2.1
			v-49.8L95.7,232.2L95.7,232.2z"/>
		<path id="shop-28vip" class="st0" d="M81.2,687.3v63.2H55.9v-63.2H81.2z M81.2,623.3v61.8H55.9v-61.8H81.2z M81.2,560.7v60.6H55.9
			v-60.6H81.2z M81.2,499.3v59H55.9v-59H81.2z"/>
		<path id="shop-28" class="st0" d="M526.3,633.1c0,0,0.4,12.5-7.7,23.9c-6.6,9.2-23.7,20.4-39.5,21.9c-39.7,3.7-305.1,0-305.1,0
			c-6.4,0.3-12.8,0.8-19.1,0c-16.3-2-24.7-2.4-38.8-15.2c-7-6.4-12-17.9-15.2-27.2c-1.9-5.5,1-71,0-86.3c0,0,1.3-12.9,7.8-22
			c9-12.7,25.2-23.5,44.3-25.1c15-1.3,313.1-1.3,313.1-1.3s25.4,0.3,37,9.4s20.3,23.5,23.1,38.4
			C529.1,564.5,526.3,633.1,526.3,633.1L526.3,633.1z M543.6,707.1V788H124.5v-80.9H543.6L543.6,707.1z"/>
		<polygon id="shop-FS-5" class="st0" points="424.1,213.5 424.1,171.9 461.2,171.9 461.2,213.4 		"/>
		<polygon id="shop-FS-6" class="st0" points="461.2,170.1 364.2,170.1 364.2,115.4 461.2,108.1 		"/>
		<path id="shop-03" class="st0" d="M422.5,171.9v41.6l-32-0.1c-14.7,0.3-34,3.7-42.5,10.3c-5.1,3.9-28.8,24-28.8,24v-75.7
			L422.5,171.9L422.5,171.9z"/>
		<path id="shop-FS-7" class="st0" d="M362.5,169.9v-54.3l-24.6,4.5l-18.8,3.6c0,0-12.2,1.3-18,1.6s-10,0.4-25.6,0.2
			c-15.5-0.3-31.8-0.6-31.8-0.6v61.8h73.8v-16.8H362.5L362.5,169.9z"/>
		<polygon id="shop-20" class="st0" points="461.9,67.8 376.9,67.8 376.6,4.3 461.9,4.2 		"/>
		<polygon id="shop-22" class="st0" points="317.6,188.2 317.6,247.6 243.9,249.1 243.9,188.2 		"/>
		<rect id="shop-12" x="23.4" y="186.2" class="st1" width="72.3" height="43.6"/>
		<rect id="shop-31" x="25.1" y="463" class="st1" width="25.5" height="23.1"/>
		<rect id="shop-30" x="81.2" y="463" class="st1" width="31.8" height="23.1"/>
		<rect id="shop-24" x="285.2" y="463.2" class="st1" width="32.3" height="23.1"/>
		<rect id="shop-15" x="328.6" y="448.4" class="st1" width="65.9" height="17.8"/>
		<rect id="shop-S" x="328.6" y="468.4" class="st1" width="65.9" height="17.8"/>
		<rect id="shop-25" x="432.6" y="458.7" class="st1" width="31.2" height="17.5"/>
		<rect id="shop-34" x="505.8" y="310.4" class="st1" width="28.3" height="17.5"/>
		<rect id="shop-36" x="368.9" y="310.4" class="st1" width="28.3" height="17.5"/>
		<rect id="shop-27" x="334.7" y="274.6" class="st1" width="28.3" height="17.5"/>
		<rect id="shop-16" x="260.2" y="270.2" class="st1" width="28.3" height="17.5"/>
		<rect id="shop-17" x="120.8" y="304.9" class="st1" width="28.3" height="17.5"/>
		<rect id="shop-33" x="122.5" y="256" class="st1" width="14.1" height="22.9"/>
		<rect id="shop-19" x="39.6" y="280.5" class="st1" width="15.8" height="15.8"/>
		<rect id="shop-26" x="505.8" y="216.8" class="st1" width="28.3" height="17.5"/>
		<rect id="shop-21" x="538.5" y="250.6" class="st1" width="17.5" height="28.3"/>
	</g>
</g>
</svg>
