<?xml version="1.0" encoding="UTF-8"?>
<svg id="_Слой_2" data-name="Слой 2" xmlns="http://www.w3.org/2000/svg" viewBox="0 0 752.72 283.15">
  <defs>
    <style>
      .cls-1, .cls-2 {
        fill: #fff;
      }

      .cls-2 {
        fill-rule: evenodd;
      }
    </style>
  </defs>
  <g id="_2_этаж" data-name="2 этаж">
    <g id="static_up">
      <g>
        <path class="cls-1" d="M741.04,220.18c0-1.17-1.01-2.1-2.27-2.1s-2.35,.84-2.35,2.01,1.01,2.1,2.27,2.1,2.35-.84,2.35-2.01"/>
        <path class="cls-1" d="M735.08,218s-.25-.34-.34-.5c-.59-.67-1.43-1.09-2.35-1.09h-4.2l-4.2-.92c-.5-.08-.92-.67-.76-1.17,.08-.5,.67-.92,1.17-.76l9.99,2.27s.67,.42,.76,.76h0l.34,1.26c-.17,0-.25,.17-.42,.25"/>
        <path class="cls-1" d="M724.09,226.06c-.59,.08-1.09-.25-1.17-.84-.08-.5,.25-1.09,.84-1.17l4.2-.76c1.43,0,2.77,.17,4.2,.25,.92,0,1.76-.34,2.35-1.01,.17-.17,.25-.34,.42-.5,.17,.08,.25,.17,.42,.25l-.34,1.26h0s-.42,.67-.76,.67l-10.07,1.85h-.08Z"/>
        <path class="cls-1" d="M725.52,222.78h-.5l-13.76,.42c-.67,0-1.17-.5-1.17-1.17s.5-1.17,1.17-1.26l11.16-.34h0s.67-.34,.67-.76-.25-.76-.67-.76h0l-11.16-.84c-.67,0-1.17-.59-1.09-1.26,0-.67,.59-1.17,1.26-1.09l13.76,1.01h.5c.17,1.01,.25,1.93,.25,2.94s-.17,1.93-.34,2.94"/>
        <path class="cls-1" d="M735,220.01h0c0,.84-.34,1.59-.84,2.1-.5,.5-1.17,.84-1.93,.76-1.68,0-3.27-.17-4.95-.25h-1.09c.17-.92,.34-1.93,.34-2.85s0-1.93-.17-2.85h6.04c.76,0,1.43,.34,1.85,.84,.5,.59,.76,1.34,.76,2.18"/>
      </g>
      <g>
        <path class="cls-1" d="M724.18,76.55c3.86-.76,7.72-1.51,11.58-2.27h0c.76-.17,1.34-.5,1.85-1.09,.34-.42,.59-.92,.59-1.51,0-.5-.17-1.09-.5-1.51-.42-.59-1.09-1.01-1.76-1.17h0c-3.78-.92-7.64-1.85-11.41-2.77h-.42v.5c1.01,1.59,1.51,3.19,1.51,4.7s-.67,3.02-1.76,4.61c-.08,.17-.08,.34,0,.5,0,.08,.25,.17,.42,.08"/>
        <path class="cls-1" d="M714.45,71.69c-.59,0-1.01,.42-1.01,1.01s.42,1.01,1.01,1.01l9.9,.34c.25-.59,.5-1.26,.67-1.93-.08,0-.25,0-.42-.08l-10.07-.34h-.08Z"/>
        <path class="cls-1" d="M714.45,70.51c-.59,0-1.01-.42-1.01-1.01s.5-1.01,1.01-1.01h9.9c.25,.67,.42,1.34,.59,2.01h-10.49Z"/>
        <path class="cls-1" d="M744.32,71.86c0-1.17-1.01-2.1-2.27-2.1s-2.35,.84-2.35,2.01,1.01,2.1,2.27,2.1,2.35-.84,2.35-2.01"/>
        <path class="cls-1" d="M727.54,77.64c-.5,.25-.76,.84-.5,1.34,.25,.5,.84,.76,1.34,.5l8.22-3.44h0c.76-.34,1.26-.92,1.59-1.68,0,0,0-.08,.08-.17l-.5-.17c-.5,.42-1.09,.76-1.76,.92h0c-1.17,.25-2.43,.5-3.61,.76l-4.7,2.01-.17-.08Z"/>
        <path class="cls-1" d="M727.79,65.31c-.5-.25-.76-.84-.5-1.34,.25-.5,.84-.76,1.34-.5l8.06,3.78h0c.76,.34,1.26,1.01,1.51,1.76v.17l-.5,.17c-.5-.5-1.09-.84-1.76-1.01h0c-1.17-.34-2.43-.59-3.61-.92l-4.61-2.18,.08,.08Z"/>
      </g>
      <path class="cls-1" d="M730.6,274.84c-.17,1.26,.17,2.52,.84,3.52,.42,.5,.84,1.01,1.43,1.26h-1.09s-.5-.08-.76,0c-.17-.17-.34-.42-.5-.59-.92-1.17-1.34-2.77-1.09-4.36,.25-1.59,1.09-2.94,2.35-3.86,1.17-.92,2.77-1.34,4.36-1.09,.92,.17,1.68,.5,2.43,.92-.34,.17-.67,.5-.76,.92-.5-.34-1.17-.59-1.85-.67-1.26-.17-2.52,.17-3.52,.84-1.01,.76-1.68,1.76-1.85,3.1m21.98,3.52c.42-1.01-.17-2.27-1.34-2.69-1.17-.42-2.43,0-2.85,1.01s.17,2.27,1.34,2.69,2.43,0,2.85-1.01Zm-6.46,.08s-.59,.17-.84,.17c-.92-.08-1.85-.17-2.85-.25l-1.43-.17c.08-.59,.17-1.17,.08-1.76,0-1.01-.17-1.93-.5-2.85h3.1l1.09,3.69c.17,.59,.67,1.01,1.17,1.09l.17,.08Zm1.26-1.85c.17,.5-.17,1.09-.67,1.26-.5,.17-1.09-.17-1.26-.67l-1.26-4.28-4.95,.17c-.5,0-1.01-.42-1.01-.92s.42-1.01,.92-1.01l5.71-.17c.42,0,.92,.25,1.01,.67l1.43,4.95h.08Zm-8.98-2.52v.08s.42-.34,.67-.42c.17,0,.25-.08,.42-.08h.67c.34,.84,.5,1.85,.5,2.85,0,.59,0,1.09-.08,1.68h-1.01l-.34,3.94c0,.59-.59,1.01-1.17,1.01h0l-6.38-.67c-.59,0-1.01-.59-1.01-1.17s.59-1.01,1.17-1.01l5.29,.5v-.84s-.42,.25-.67,.17c-.59-.08-1.01-.67-.92-1.26l.76-4.95c.08-.59,.67-1.01,1.26-.92s1.01,.67,.92,1.26l-.08-.17Zm-9.9,.42c-.25,1.85,.17,3.69,1.26,5.12,.17,.25,.34,.42,.5,.59-.08,.17-.25,.34-.25,.59-.25-.25-.5-.5-.76-.84-1.09-1.51-1.68-3.52-1.34-5.54,.34-2.01,1.43-3.78,2.94-4.87,1.51-1.09,3.52-1.68,5.54-1.34,1.68,.25,3.19,1.09,4.28,2.27h-.84c-.92-.84-2.18-1.51-3.61-1.68-1.85-.25-3.69,.25-5.12,1.26-1.43,1.01-2.43,2.6-2.69,4.45h.08Z"/>
      <path class="cls-2" d="M738.76,114.88l-15.44,1.59,.84-.92,4.53-.25-4.87-.25-2.27,3.44s-.5,.76-1.34,.34c-.76-.42-.5-1.01-.42-1.34,.08-.34,2.94-4.36,2.94-4.36l5.54-.17-5.96-.42-1.26,1.68-3.44-8.39,17.12,4.78s2.01,.42,2.85,1.59c.84,1.09,.92,1.43,1.09,2.69m-20.81-6.96l2.6,7.05s-3.02,3.78-3.61,4.36c-.59,.5-1.43,1.17-2.6,.84-1.17-.34-1.01-2.18-1.01-2.6v-11.24s.34-1.17,1.93-1.09c1.51,0,1.34,2.18,1.34,2.18v2.01s.42,.5,1.43-1.51h-.08Zm19.89,7.47c-.08,1.43-1.26,2.52-2.69,2.52-1.26,0-2.27-.84-2.6-1.93l5.29-.5v-.08Z"/>
      <path class="cls-2" d="M734.67,170.91c-1.68-.08-3.02-1.51-3.02-3.19s1.34-3.1,3.02-3.19v6.38Zm-2.6-6.04s-.92,1.01-1.01,1.17v1.85h-7.55l-2.43,3.02s-1.01,.42-1.59-.17,0-1.59,0-1.59l2.94-3.78,5.62-.34-6.13-.17-3.27,3.78-2.94,5.71s-.67,.67-1.51,.34-.92-1.01-.92-1.01v-12.92s.17-.92,1.34-1.01c1.26-.08,1.51,1.34,1.51,1.34v4.61s.34,.42,.59-.17c.25-.67,2.1-3.69,2.27-3.78,.17-.17,11.24,0,11.24,0,0,0,2.52,.84,1.93,3.1h-.08Zm6.04,2.85c0,1.59-1.17,2.94-2.69,3.19v-6.29c1.51,.25,2.69,1.59,2.69,3.19v-.08Z"/>
    </g>
  </g>
</svg>