<svg width="35" height="35" viewBox="0 0 35 35" fill="none" xmlns="http://www.w3.org/2000/svg">
<path fill-rule="evenodd" clip-rule="evenodd" d="M17.5 3.30189C9.6586 3.30189 3.30189 9.6586 3.30189 17.5C3.30189 25.3414 9.6586 31.6981 17.5 31.6981C25.3414 31.6981 31.6981 25.3414 31.6981 17.5C31.6981 9.6586 25.3414 3.30189 17.5 3.30189ZM0 17.5C0 7.83502 7.83502 0 17.5 0C27.165 0 35 7.83502 35 17.5C35 27.165 27.165 35 17.5 35C7.83502 35 0 27.165 0 17.5ZM11.0943 12.7453C11.0943 11.8335 11.8335 11.0943 12.7453 11.0943H12.9032C13.8149 11.0943 14.5541 11.8335 14.5541 12.7453V12.8722C14.5541 13.784 13.8149 14.5231 12.9032 14.5231H12.7453C11.8335 14.5231 11.0943 13.784 11.0943 12.8722V12.7453ZM20.6038 12.7453C20.6038 11.8335 21.3429 11.0943 22.2547 11.0943H22.3951C23.3069 11.0943 24.046 11.8335 24.046 12.7453V12.8722C24.046 13.784 23.3069 14.5231 22.3951 14.5231H22.2547C21.3429 14.5231 20.6038 13.784 20.6038 12.8722V12.7453ZM23.8634 20.9156C24.6386 21.3955 24.8781 22.413 24.3982 23.1883C22.9623 25.508 20.4197 27.0754 17.5 27.0754C14.5803 27.0754 12.0377 25.508 10.6018 23.1883C10.1219 22.413 10.3614 21.3955 11.1366 20.9156C11.9119 20.4357 12.9294 20.6751 13.4093 21.4504C14.2846 22.8643 15.7999 23.7735 17.5 23.7735C19.2001 23.7735 20.7154 22.8643 21.5907 21.4504C22.0706 20.6751 23.0881 20.4357 23.8634 20.9156Z" fill="white"/>
</svg>
