<?xml version="1.0" encoding="UTF-8"?>
<svg id="_Слой_2" data-name="Слой 2" xmlns="http://www.w3.org/2000/svg" viewBox="0 0 731.06 544.87">
  <defs>
    <style>
      .cls-1 {
        fill: #ad1c1c;
      }

      .cls-2 {
        fill-rule: evenodd;
      }

      .cls-2, .cls-3 {
        fill: red;
      }
    </style>
  </defs>
  <g id="_Слой_1-2" data-name="Слой 1">
    <g id="objects">
      <polygon id="shop-19" class="cls-2" points="319.34 280.77 354.33 280.87 354.33 240.35 319.34 240.35 319.34 280.77"/>
      <polygon id="shop-2" class="cls-2" points="309.84 326.13 453.76 326.13 454.27 374.39 520.4 374.13 520.4 465.45 309.84 464.75 309.84 326.13"/>
      <polygon id="shop-10" class="cls-2" points="236.9 69.8 297.94 69.62 297.94 93.13 236.9 93.13 236.9 69.8"/>
      <polygon id="shop-9" class="cls-2" points="236.9 95.13 297.94 95.13 297.94 120.08 236.9 119.64 236.9 95.13"/>
      <polygon class="cls-2" points="236.9 121.85 297.94 122.27 297.94 146.71 236.9 146.64 236.9 121.85"/>
      <path id="shop-21" class="cls-2" d="M22.99,95.44s9.73,.04,13.79,0,13.34,.9,20.45,5.32c9.18,5.69,8.07,21.13,7.7,21.15H22.99v-26.46h0Z"/>
      <rect id="shop-14" class="cls-3" x="13.85" y="123.95" width="71.87" height="24.53"/>
      <rect id="shop-15" class="cls-3" x="13.85" y="150.48" width="71.87" height="24.58"/>
      <rect id="shop-16" class="cls-3" x="13.85" y="177.05" width="71.87" height="23.89"/>
      <rect id="shop-17" class="cls-3" x="13.85" y="202.94" width="71.87" height="24.54"/>
      <path id="shop-5" class="cls-2" d="M85.72,250.05c-.23,5.07-2.43,12.94-7.45,17.71s-10.55,7.92-22.72,7.88c-1.03,.08-14.54-.01-14.54-.01H.12l-.12-31.2H13.85s0-14.95,0-14.95H85.72s.23,15.5,0,20.57Z"/>
      <rect id="shop-18" class="cls-3" x="24.18" y="440.28" width="47.81" height="40.68"/>
      <path id="shop-13" class="cls-2" d="M140.7,0h30.81V43.31s-14.34-1.03-20.24-5.91-10.24-10.52-11.35-15.85,.77-21.55,.77-21.55h0Z"/>
      <path id="shop-23" class="cls-2" d="M139.22,0s-17.33,.89-27.06,3.03c-9.67,2.12-21.77,5.84-21.77,5.84,0,0,3.49,6.83,8.12,10.41,9.25,7.17,23.31,8.26,39.8,1.44,0,0-.12-8.46,0-10.21s.9-10.5,.9-10.5h0Z"/>
      <polygon id="shop-11" class="cls-2" points="214.31 14.08 297.94 13.93 297.94 67.34 236.9 67.53 236.9 43.31 214.31 43.31 214.31 14.08"/>
      <path id="shop-6" class="cls-2" d="M237.32,371.67v112.32h68.26v-157.85s-18.88,.59-29.89,4.67c-10.95,4.05-23.72,15.29-27.43,19.43s-8.19,10.97-10.93,21.43h0Z"/>
      <path id="shop-1" class="cls-2" d="M731.06,77.63v467.23h-206.4v-242.36s16.46-44.6,17.4-47.83,6.76-23.26,6.76-23.26l6.73-50.15V77.76l175.52-.15v.02h0Z"/>
      <polygon id="shop-WC" class="cls-2" points="461.6 56.74 552.55 56.89 552.55 90.83 461.6 90.16 461.6 56.74"/>
      <rect id="shop-12" class="cls-3" x="173.67" width="38.63" height="43.31"/>
      <polygon id="shop-3" class="cls-2" points="461.6 109.08 535.09 109.16 535.09 92.79 552.55 92.83 552.55 181.11 461.6 181.21 461.6 109.08"/>
      <path id="shop-25" class="cls-2" d="M307.47,57.11h127.11v95.86l-31.98,.21v-21.61h-58.37v21.57s-25.1,0-36.76-.1V57.11h0Z"/>
      <path id="shop-24" class="cls-2" d="M364.55,156.56v24.65h-57.07v-24.95c18.81,.17,38.47,.13,57.07,.3h0Z"/>
      <polygon id="shop-4" class="cls-2" points="434.58 181.21 383.41 181.21 383.41 156.6 434.58 156.22 434.58 181.21 434.58 181.21"/>
      <rect id="shop-7" class="cls-1" x="457.98" y="326.13" width="62.42" height="44.43"/>
      <path id="shop-8" class="cls-2" d="M297.94,148.71v32.3l-32.92,.2s-12.86-.99-20.16-8.11-7.96-24.46-7.96-24.46l61.04,.08h0Z"/>
      <rect id="shop-20" class="cls-3" x="262.95" y="182.54" width="35" height="40.53"/>
    </g>
  </g>
</svg>