<?xml version="1.0" encoding="utf-8"?>
<!-- Generator: Adobe Illustrator 26.4.1, SVG Export Plug-In . SVG Version: 6.00 Build 0)  -->
<svg version="1.1" id="_Слой_2" xmlns="http://www.w3.org/2000/svg" xmlns:xlink="http://www.w3.org/1999/xlink" x="0px"
	 y="0px" viewBox="0 0 754.1 548.9" style="enable-background:new 0 0 754.1 548.9;" xml:space="preserve">
<style type="text/css">
	.st0{fill-rule:evenodd;clip-rule:evenodd;fill:#FF0000;}
	.st1{fill:#FF0000;}
	.st2{fill:#AD1C1C;}
</style>
<g id="_3_этаж">
	<g id="objects">
		<polygon id="shop-19" class="st0" points="342.4,284.8 377.4,284.9 377.4,244.4 342.4,244.4 		"/>
		<polygon id="shop-2" class="st0" points="332.9,330.1 476.8,330.1 477.3,378.4 543.4,378.1 543.4,469.5 332.9,468.8 		"/>
		<polygon id="shop-10" class="st0" points="259.9,73.8 321,73.6 321,97.1 259.9,97.1 		"/>
		<polygon id="shop-9" class="st0" points="259.9,99.1 321,99.1 321,124.1 259.9,123.6 		"/>
		<polygon id="shop-26" class="st0" points="259.9,125.8 321,126.3 321,150.7 259.9,150.6 		"/>
		<path id="shop-21" class="st0" d="M46,99.4c0,0,9.7,0,13.8,0s13.3,0.9,20.5,5.3c9.2,5.7,8.1,21.1,7.7,21.2H46V99.4L46,99.4
			L46,99.4z"/>
		<rect id="shop-14" x="36.9" y="127.9" class="st1" width="71.9" height="24.5"/>
		<rect id="shop-15" x="36.9" y="154.5" class="st1" width="71.9" height="24.6"/>
		<rect id="shop-16" x="36.9" y="181.1" class="st1" width="71.9" height="23.9"/>
		<rect id="shop-17" x="36.9" y="206.9" class="st1" width="71.9" height="24.5"/>
		<path id="shop-5" class="st0" d="M108.7,254.1c-0.2,5.1-2.4,12.9-7.4,17.7s-10.6,7.9-22.7,7.9c-1,0.1-14.5,0-14.5,0H23.1L23,248.4
			h13.9v-14.9h71.9C108.7,233.5,109,249,108.7,254.1L108.7,254.1z"/>
		<rect id="shop-18" x="47.2" y="444.3" class="st1" width="47.8" height="40.7"/>
		<path id="shop-13" class="st0" d="M163.7,4h30.8v43.3c0,0-14.3-1-20.2-5.9S164,30.9,162.9,25.6S163.7,4,163.7,4L163.7,4L163.7,4z"
			/>
		<path id="shop-23" class="st0" d="M162.2,4c0,0-17.3,0.9-27.1,3c-9.7,2.1-21.8,5.8-21.8,5.8s3.5,6.8,8.1,10.4
			c9.2,7.2,23.3,8.3,39.8,1.4c0,0-0.1-8.5,0-10.2S162.2,4,162.2,4L162.2,4L162.2,4z"/>
		<polygon id="shop-11" class="st0" points="237.3,18.1 321,17.9 321,71.3 259.9,71.5 259.9,47.3 237.3,47.3 		"/>
		<path id="shop-6" class="st0" d="M260.3,375.7V488h68.3V330.1c0,0-18.9,0.6-29.9,4.7c-11,4-23.7,15.3-27.4,19.4
			S263.1,365.2,260.3,375.7L260.3,375.7L260.3,375.7z"/>
		<path id="shop-1" class="st0" d="M754.1,81.6v467.2H547.7V306.5c0,0,16.5-44.6,17.4-47.8s6.8-23.3,6.8-23.3l6.7-50.2V81.8
			L754.1,81.6L754.1,81.6L754.1,81.6L754.1,81.6z"/>
		<polygon id="shop-WC" class="st0" points="484.6,60.7 575.6,60.9 575.6,94.8 484.6,94.2 		"/>
		<rect id="shop-12" x="196.7" y="4" class="st1" width="38.6" height="43.3"/>
		<polygon id="shop-3" class="st0" points="484.6,113.1 558.1,113.2 558.1,96.8 575.6,96.8 575.6,185.1 484.6,185.2 		"/>
		<path id="shop-25" class="st0" d="M330.5,61.1h127.1V157l-32,0.2v-21.6h-58.4v21.6c0,0-25.1,0-36.8-0.1L330.5,61.1L330.5,61.1
			L330.5,61.1z"/>
		<path id="shop-24" class="st0" d="M387.6,160.6v24.6h-57.1v-24.9C349.3,160.4,369,160.4,387.6,160.6L387.6,160.6z"/>
		<polygon id="shop-4" class="st0" points="457.6,185.2 406.4,185.2 406.4,160.6 457.6,160.2 457.6,185.2 		"/>
		<rect id="shop-7" x="481" y="330.1" class="st2" width="62.4" height="44.4"/>
		<path id="shop-8" class="st0" d="M321,152.7V185l-32.9,0.2c0,0-12.9-1-20.2-8.1s-8-24.5-8-24.5L321,152.7L321,152.7L321,152.7z"/>
		<rect id="shop-20" x="286" y="186.5" class="st1" width="35" height="40.5"/>
	</g>
</g>
</svg>
