<?xml version="1.0" encoding="UTF-8"?>
<svg id="_Слой_2" data-name="Слой 2" xmlns="http://www.w3.org/2000/svg" viewBox="0 0 749.75 485.85">
  <defs>
    <style>
      .cls-1 {
        fill: #5eb132;
      }

      .cls-2 {
        fill: #009640;
      }

      .cls-3, .cls-4 {
        fill: #fff;
      }

      .cls-4 {
        fill-rule: evenodd;
      }
    </style>
  </defs>
  <g id="_1_этаж" data-name="1 этаж">
    <g id="static_up">
      <g>
        <path class="cls-3" d="M734.51,210.04c-.96-.02-1.74,.84-1.77,1.91-.02,1.07,.73,1.96,1.68,1.98,.95,.02,1.74-.84,1.77-1.91,.02-1.07-.73-1.96-1.68-1.98"/>
        <path class="cls-3" d="M732.7,215.08c-.15,.09-.31,.19-.44,.32-.57,.49-.91,1.19-.91,1.95,0,1.17,0,2.34,.02,3.53l-.79,3.48c-.1,.46-.55,.73-1.01,.63s-.73-.55-.63-1.01l1.91-8.35c.07-.33,.33-.56,.62-.63h0l1.04-.25c.06,.11,.13,.22,.19,.35"/>
        <path class="cls-3" d="M739.44,224.2c.08,.46-.22,.9-.68,.98s-.9-.22-.98-.68l-.63-3.51c.06-1.17,.12-2.34,.17-3.52,.04-.75-.28-1.47-.82-1.99-.13-.12-.28-.23-.43-.34l.21-.34,1.02,.3h0c.3,.09,.54,.34,.59,.66l1.53,8.43h.01Z"/>
        <path class="cls-3" d="M736.69,223.01c.01,.13,.02,.26,.02,.41l.34,11.5c.02,.55-.42,1-.96,1.02-.55,.02-1-.42-1.02-.96l-.28-9.34h0c-.01-.32-.28-.57-.61-.58-.33,0-.61,.23-.63,.55h0l-.69,9.32c-.04,.55-.52,.96-1.06,.92-.54-.04-.96-.51-.92-1.06l.86-11.47c.01-.14,.02-.29,.04-.41,.83-.14,1.64-.2,2.47-.18,.82,.02,1.64,.11,2.46,.3"/>
        <path class="cls-3" d="M734.4,215.14h0c.7,.02,1.32,.29,1.77,.7,.44,.42,.69,.98,.66,1.6-.07,1.37-.13,2.74-.2,4.11-.02,.39,0,.67,0,.94-.79-.16-1.6-.25-2.39-.28-.81-.02-1.61,.04-2.41,.16,.03-.26,.05-.55,.05-.93,0-1.38-.01-2.74-.02-4.12,0-.62,.28-1.17,.73-1.57,.46-.4,1.1-.63,1.8-.62"/>
        <path class="cls-3" d="M723.37,206.71h0c.2,0,.37,.17,.36,.38l-.52,23.22c0,.2-.17,.37-.38,.36-.2,0-.37-.17-.36-.38l.52-23.22c0-.2,.17-.37,.38-.36"/>
        <path class="cls-3" d="M717.76,216.17c-.63-3.22-1.26-6.44-1.9-9.66h0c-.15-.61-.46-1.17-.94-1.56-.36-.29-.78-.46-1.23-.49-.45,0-.89,.16-1.25,.43-.5,.37-.83,.91-1.01,1.5h0c-.77,3.2-1.55,6.39-2.32,9.58-.04,.15,0,.3,.06,.35,.08,.06,.26,.05,.39-.02,1.34-.84,2.63-1.27,3.9-1.26,1.27,.05,2.55,.55,3.84,1.44,.12,.08,.31,.09,.39,.04,.07-.05,.11-.19,.08-.34"/>
        <path class="cls-3" d="M713.75,224.35c-.02,.47,.35,.86,.82,.88,.47,.02,.86-.35,.87-.82l.31-8.28c-.51-.24-1.05-.43-1.6-.53-.04,.09-.07,.2-.07,.32l-.32,8.43h0Z"/>
        <path class="cls-3" d="M712.74,224.33c0,.47-.39,.85-.85,.84-.47,0-.84-.39-.84-.86l.06-8.28c.52-.22,1.07-.39,1.62-.46,.04,.1,.06,.2,.06,.32l-.06,8.44h0Z"/>
        <path class="cls-3" d="M713.85,199.36c-.96-.02-1.74,.84-1.77,1.91-.02,1.07,.73,1.96,1.68,1.98,.95,.02,1.75-.84,1.77-1.91,.02-1.07-.73-1.96-1.68-1.98"/>
        <path class="cls-3" d="M718.7,213.4c.18,.43,.67,.63,1.1,.46,.43-.18,.63-.67,.45-1.1l-2.87-6.88v-.02c-.28-.62-.81-1.06-1.41-1.35-.05-.02-.1-.05-.15-.07l-.13,.44c.38,.42,.63,.93,.76,1.48v.04c.2,1.02,.41,2.03,.6,3.05l1.65,3.94h0Z"/>
        <path class="cls-3" d="M708.38,213.16c-.2,.42-.7,.6-1.12,.41s-.6-.69-.4-1.12l3.18-6.75v-.02c.31-.61,.86-1.02,1.47-1.28,.05-.02,.11-.04,.16-.06l.12,.45c-.4,.4-.67,.9-.84,1.44v.04c-.25,1.01-.51,2.01-.75,3.02l-1.82,3.87h0Z"/>
      </g>
      <path class="cls-3" d="M736.43,256.43c-.1,.69,.08,1.35,.46,1.87,.2,.28,.46,.51,.77,.69l-.59-.06c-.14-.01-.28,0-.41,.05-.1-.1-.19-.21-.27-.32-.47-.65-.7-1.48-.57-2.33,.13-.86,.6-1.57,1.24-2.05s1.48-.7,2.33-.57c.47,.08,.91,.25,1.28,.5-.19,.1-.34,.27-.41,.47-.28-.18-.61-.31-.96-.36-.69-.1-1.35,.08-1.87,.46s-.89,.96-1,1.64m11.72,1.87c.22-.56-.11-1.2-.73-1.45-.62-.24-1.3,0-1.52,.56s.11,1.2,.73,1.45c.62,.24,1.3,0,1.52-.56Zm-3.45,.05c-.14,.06-.3,.09-.46,.08-.5-.05-1-.09-1.5-.13l-.75-.07c.05-.31,.07-.62,.06-.93-.01-.52-.1-1.04-.25-1.52l1.67-.05,.58,2.03c.09,.31,.34,.53,.64,.59h0Zm.67-.96c.08,.28-.08,.57-.36,.65s-.57-.08-.65-.36l-.65-2.26-2.64,.08c-.29,0-.53-.22-.54-.51s.22-.53,.51-.54l3.02-.09c.24-.02,.47,.13,.54,.38l.76,2.66h0Zm-4.8-1.36v.06c.1-.1,.22-.17,.35-.23,.07-.03,.14-.05,.21-.06h.35c.16,.46,.25,.98,.26,1.5,0,.3-.01,.6-.06,.9-.15-.01-.3-.03-.45-.04-.02,0-.05,0-.08-.01l-.19,2.08c-.03,.32-.32,.56-.64,.53h-.02l-3.39-.35c-.32-.03-.56-.32-.52-.64,.03-.32,.32-.56,.64-.52l2.82,.29,.05-.46c-.12,.08-.26,.12-.41,.09-.31-.05-.53-.34-.48-.65l.41-2.65c.05-.31,.34-.53,.65-.48,.31,.05,.53,.34,.48,.65h0Zm-5.25,.23c-.16,1,.11,1.96,.67,2.71,.09,.12,.17,.23,.27,.33-.06,.09-.11,.19-.14,.3-.14-.14-.27-.29-.38-.45-.6-.82-.89-1.86-.72-2.94,.17-1.08,.75-1.99,1.57-2.59,.82-.6,1.86-.89,2.94-.72,.91,.14,1.7,.58,2.29,1.2h-.43c-.51-.46-1.17-.79-1.9-.9-1-.16-1.96,.11-2.71,.67-.75,.55-1.3,1.39-1.45,2.39h0Z"/>
      <path class="cls-4" d="M583.8,351.84l-.1,.11c-.11,.1-.55,.45-.66,.48-.05,.11-.24,.23-.33,.3-.72,.58-.73,.4-.85,.97,.15,.17,.45,1.09,.58,1.39,.1,.24,.18,.46,.5,.43,.85-.08-.02-1.33-.12-1.82,.21-.08,.59-.48,.89-.64l-.1,4.53-.43,1.22c-.05,.11-.05,.19-.11,.25-.05,.2-.51,1.01,.17,1.16,.45,.1,.56-.29,.64-.52,.05-.13,.07-.22,.15-.32,0-.12,.47-1.41,.54-1.46,.05-.27,.09-1.55,.05-1.82v-.49c.17-.05,.04-.02,.09,.02l.95,.62c-.02,.33-.05,.68-.08,1.01-.08,.89,.1,.59,.14,.81,.37,.14,.47,.13,.7-.11l.06-.07s.01-.02,.02-.02c-.02-.32,.09-1.1,.12-1.48,.02-.27,.08-.5-.09-.68-.13-.14-.33-.19-.43-.35-.12-.02-.08-.01-.24-.12-.08-.05-.13-.09-.22-.15-.15-.1-.3-.18-.46-.3l.03-1.37c.14,.11,.26,.3,.39,.46,.2,.24,.17,.22,.52,.3,.1-.07,.32-.11,.48-.13,.17-.07,.68-.15,.91-.2,.17-.04,.28-.07,.38-.18,.1-.13,.12-.28,.06-.43-.21-.52-1.21-.04-1.74,.01l-.45-.55c-.15-.2-.29-.36-.42-.54-.18-.24-.23-.36-.64-.36-.43,0-.54-.01-.88,.07m5.62,4.39c.17,.05,1.17,.02,1.42,.02,2.26,0,2.06,.15,2.06-.77,0-.73,.11-1.04-.36-1.05h-2.88c-.21,0-.47-.02-.58,.11-.19,.24,.07,.35,.12,.51,0,.37-.13,1.1,.22,1.2h0Zm1.42,.39l-.18-.14c-.75-.01-1.5,0-2.25,0-.6,0-1.37-.14-1.43,.23-.04,.2,.08,.25,.17,.32-.01,1.04-.12,1.28,.38,1.29,.38,0,3.12,.05,3.25-.06,.16-.14,.1-1.33,.07-1.63h0Zm-2.05,3.58c.03-.4-.06-1.14,.04-1.47-.24-.3-.27-.21-1.04-.21h-2.48c-.7,.01-.23,.57-.23,.58,.07,.21-.13,1.11,.17,1.23,.13,.05,1.04,.02,1.24,.02h1.85c.36,0,.33-.03,.45-.15Zm-5.79,.93c.13,.14-.01,.85,.06,1.09,.09,.29,.69,.18,1,.18,.77,0,1.55-.01,2.33,0,.17,0,.2-.02,.32-.06,.08-.28,.05-.9,.05-1.3,0-.58-.14-.46-.92-.47-.54,0-2.38,.07-2.76-.02-.09,.1-.18,.11-.2,.27-.02,.2,.08,.17,.13,.31Zm-2.11,1.6c-.08,.13-.04,.26-.02,.38,.2,.08,.13,.31,.13,.55s.01,.45,.02,.67c.26,.16,.4,.13,.79,.13h.89c.58,0,1.24,.03,1.81,0,.1-.08,.14-.06,.18-.23,.03-.13,.01-.3,.01-.44v-.96c-.13-.16-.04-.05-.19-.18-.61-.03-1.27,0-1.88,0-.39,0-1.49-.11-1.73,.1h-.01Zm3.64-12.97c-1.01,.31-.66,2.05,.43,1.76,.41-.11,.73-.56,.61-1.11-.1-.42-.51-.82-1.04-.66Z"/>
      <path class="cls-4" d="M368.08,473.21l-.1,.11c-.11,.1-.55,.45-.66,.48-.05,.11-.24,.23-.33,.3-.72,.58-.73,.4-.85,.97,.15,.17,.45,1.09,.58,1.39,.1,.24,.18,.46,.5,.43,.85-.08-.02-1.33-.12-1.82,.21-.08,.59-.48,.89-.64l-.1,4.53-.43,1.22c-.05,.11-.05,.19-.11,.25-.05,.2-.51,1.01,.17,1.16,.45,.1,.56-.29,.64-.52,.05-.13,.07-.22,.15-.32,0-.12,.47-1.41,.54-1.46,.05-.27,.09-1.55,.05-1.82v-.49c.17-.05,.04-.02,.09,.02l.95,.62c-.02,.33-.05,.68-.08,1.01-.08,.89,.1,.59,.14,.81,.37,.14,.47,.13,.7-.11l.06-.07s.01-.02,.02-.02c-.02-.32,.09-1.1,.12-1.48,.02-.27,.08-.5-.09-.68-.13-.14-.33-.19-.43-.35-.12-.02-.08-.01-.24-.12-.08-.05-.13-.09-.22-.15-.15-.1-.3-.18-.46-.3l.03-1.37c.14,.11,.26,.3,.39,.46,.2,.24,.17,.22,.52,.3,.1-.07,.32-.11,.48-.13,.17-.07,.68-.15,.91-.2,.17-.04,.28-.07,.38-.18,.1-.13,.12-.28,.06-.43-.21-.52-1.21-.04-1.74,.01l-.45-.55c-.15-.2-.29-.36-.42-.54-.18-.24-.23-.36-.64-.36-.43,0-.54-.01-.88,.07m5.62,4.39c.17,.05,1.17,.02,1.42,.02,2.26,0,2.06,.15,2.06-.77,0-.73,.11-1.04-.36-1.05h-2.88c-.21,0-.47-.02-.58,.11-.19,.24,.07,.35,.12,.51,0,.37-.13,1.1,.22,1.2h0Zm1.42,.39l-.18-.14c-.75-.01-1.5,0-2.25,0-.6,0-1.37-.14-1.43,.23-.04,.2,.08,.25,.17,.32-.01,1.04-.12,1.28,.38,1.29,.38,0,3.12,.05,3.25-.06,.16-.14,.1-1.33,.07-1.63h0Zm-2.05,3.58c.03-.4-.06-1.14,.04-1.47-.24-.3-.27-.21-1.04-.21h-2.48c-.7,.01-.23,.57-.23,.58,.07,.21-.13,1.11,.17,1.23,.13,.05,1.04,.02,1.24,.02h1.85c.36,0,.33-.03,.45-.15Zm-5.79,.93c.13,.14-.01,.85,.06,1.09,.09,.29,.69,.18,1,.18,.77,0,1.55-.01,2.33,0,.17,0,.2-.02,.32-.06,.08-.28,.05-.9,.05-1.3,0-.58-.14-.46-.92-.47-.54,0-2.38,.07-2.76-.02-.09,.1-.18,.11-.2,.27-.02,.2,.08,.17,.13,.31Zm-2.11,1.6c-.08,.13-.04,.26-.02,.38,.2,.08,.13,.31,.13,.55s.01,.45,.02,.67c.26,.16,.4,.13,.79,.13h.89c.58,0,1.24,.03,1.81,0,.1-.08,.14-.06,.18-.23,.03-.13,.01-.3,.01-.44v-.96c-.13-.16-.04-.05-.19-.18-.61-.03-1.27,0-1.88,0-.39,0-1.49-.11-1.73,.1h-.01Zm3.64-12.97c-1.01,.31-.66,2.05,.43,1.76,.41-.11,.73-.56,.61-1.11-.1-.42-.51-.82-1.04-.66Z"/>
      <path class="cls-4" d="M198.96,351.84l-.1,.11c-.11,.1-.55,.45-.66,.48-.05,.11-.24,.23-.33,.3-.72,.58-.73,.4-.85,.97,.15,.17,.45,1.09,.58,1.39,.1,.24,.18,.46,.5,.43,.85-.08-.02-1.33-.12-1.82,.21-.08,.59-.48,.89-.64l-.1,4.53-.43,1.22c-.05,.11-.05,.19-.11,.25-.05,.2-.51,1.01,.17,1.16,.45,.1,.56-.29,.64-.52,.05-.13,.07-.22,.15-.32,0-.12,.47-1.41,.54-1.46,.05-.27,.09-1.55,.05-1.82v-.49c.17-.05,.04-.02,.09,.02l.95,.62c-.02,.33-.05,.68-.08,1.01-.08,.89,.1,.59,.14,.81,.37,.14,.47,.13,.7-.11l.06-.07s.01-.02,.02-.02c-.02-.32,.09-1.1,.12-1.48,.02-.27,.08-.5-.09-.68-.13-.14-.33-.19-.43-.35-.12-.02-.08-.01-.24-.12-.08-.05-.13-.09-.22-.15-.15-.1-.3-.18-.46-.3l.03-1.37c.14,.11,.26,.3,.39,.46,.2,.24,.17,.22,.52,.3,.1-.07,.32-.11,.48-.13,.17-.07,.68-.15,.91-.2,.17-.04,.28-.07,.38-.18,.1-.13,.12-.28,.06-.43-.21-.52-1.21-.04-1.74,.01l-.45-.55c-.15-.2-.29-.36-.42-.54-.18-.24-.23-.36-.64-.36-.43,0-.54-.01-.88,.07m5.62,4.39c.17,.05,1.17,.02,1.42,.02,2.26,0,2.06,.15,2.06-.77,0-.73,.11-1.04-.36-1.05h-2.88c-.21,0-.47-.02-.58,.11-.19,.24,.07,.35,.12,.51,0,.37-.13,1.1,.22,1.2h0Zm1.42,.39l-.18-.14c-.75-.01-1.5,0-2.25,0-.6,0-1.37-.14-1.43,.23-.04,.2,.08,.25,.17,.32-.01,1.04-.12,1.28,.38,1.29,.38,0,3.12,.05,3.25-.06,.16-.14,.1-1.33,.07-1.63h0Zm-2.05,3.58c.03-.4-.06-1.14,.04-1.47-.24-.3-.27-.21-1.04-.21h-2.48c-.7,.01-.23,.57-.23,.58,.07,.21-.13,1.11,.17,1.23,.13,.05,1.04,.02,1.24,.02h1.85c.36,0,.33-.03,.45-.15Zm-5.79,.93c.13,.14-.01,.85,.06,1.09,.09,.29,.69,.18,1,.18,.77,0,1.55-.01,2.33,0,.17,0,.2-.02,.32-.06,.08-.28,.05-.9,.05-1.3,0-.58-.14-.46-.92-.47-.54,0-2.38,.07-2.76-.02-.09,.1-.18,.11-.2,.27-.02,.2,.08,.17,.13,.31Zm-2.11,1.6c-.08,.13-.04,.26-.02,.38,.2,.08,.13,.31,.13,.55s.01,.45,.02,.67c.26,.16,.4,.13,.79,.13h.89c.58,0,1.24,.03,1.81,0,.1-.08,.14-.06,.18-.23,.03-.13,.01-.3,.01-.44v-.96c-.13-.16-.04-.05-.19-.18-.61-.03-1.27,0-1.88,0-.39,0-1.49-.11-1.73,.1h-.01Zm3.64-12.97c-1.01,.31-.66,2.05,.43,1.76,.41-.11,.73-.56,.61-1.11-.1-.42-.51-.82-1.04-.66Z"/>
      <path class="cls-3" d="M86.32,214.06c0-.5-.24-.95-.57-1.3l-.61-.43,.43-.04s.19-.03,.28-.08l.27,.19c.44,.42,.68,.98,.69,1.61s-.24,1.23-.63,1.63c-.42,.44-.98,.66-1.61,.67-.33-.01-.68-.08-.97-.23,.12-.09,.18-.26,.26-.38,.22,.1,.46,.15,.76,.14,.5,.02,.99-.2,1.3-.55,.34-.32,.55-.79,.52-1.32h0l-.12,.09Zm-8.73-.06c-.08,.45,.22,.83,.71,.94s.94-.13,1.03-.57-.22-.83-.71-.94-.94,.13-1.03,.57Zm2.52-.42s.18-.1,.31-.12c.36-.03,.72-.05,1.12-.06l.53-.02s.02,.46,.09,.68c.07,.39,.21,.76,.39,1.06l-1.19,.23-.66-1.42s-.33-.34-.53-.37h-.06Zm-.36,.77s0-.4,.18-.49c.18-.1,.4,0,.5,.18l.72,1.57,1.9-.35s.38,.1,.46,.32c.04,.19-.1,.38-.32,.45l-2.16,.4s-.37-.04-.43-.19l-.87-1.84,.03-.04Zm3.67,.44h0s-.17,.16-.26,.21c-.03,.04-.09,.05-.16,.06l-.26,.04c-.16-.34-.3-.71-.39-1.06-.04-.19-.08-.45-.05-.65,.1,.02,.23,0,.33,.01h0l-.12-1.54s.15-.46,.38-.46h0l2.5-.15s.43,.19,.44,.42-.19,.43-.42,.44l-2.07,.12,.03,.36s.18-.1,.31-.12c.23,0,.43,.19,.44,.42l.03,1.99s-.19,.43-.42,.44c-.23,0-.43-.19-.44-.42l.12-.09Zm-7.41-3.73s-.12,.25-.25,.27c-.17,0-.26-.12-.28-.25v-2.25c0-.43,.17-.83,.44-1.14s.68-.48,1.11-.45h10.81c.44,.03,.83,.2,1.15,.48,.32,.28,.49,.68,.47,1.12v2.25s-.11,.25-.23,.27c-.17,0-.26-.12-.28-.25v-2.25c-.04-.3-.15-.54-.35-.74-.23-.16-.46-.32-.75-.3h-10.81c-.3,0-.54,.12-.74,.32-.16,.23-.32,.45-.3,.75v2.25s0-.06,0-.06Zm13.02,6.04s.12-.25,.25-.27c.17,0,.26,.12,.28,.25v2.25c0,.43-.17,.83-.44,1.14s-.68,.48-1.11,.45h-10.81c-.44-.03-.83-.2-1.15-.48-.32-.28-.49-.68-.47-1.12v-2.25s.11-.25,.23-.27c.17,0,.26,.12,.28,.25v2.25c.04,.3,.15,.54,.35,.74,.23,.16,.46,.32,.75,.3h10.81c.3,0,.54-.12,.74-.32,.16-.23,.32-.45,.3-.75v-2.25s0,.06,0,.06Zm-14.27-3.28l1.8,.03s.26,.12,.28,.25c0,.17-.12,.25-.25,.27h-1.76s1.25,1.21,1.25,1.21c0,0,.11,.25,0,.4-.08,.11-.25,.11-.4,0l-1.7-1.64h0l-.08-.05h0s-.04-.03-.05-.09h0l.11-.15h0l1.62-1.67s.25-.11,.4,0c.11,.08,.11,.25,0,.4l-1.2,1.23-.04-.19Zm15.54,.01h-1.93s-.25,.1-.25,.27,.11,.25,.28,.25h1.93s-1.2,1.24-1.2,1.24c0,0-.08,.28,0,.4,.11,.08,.28,.09,.4,0l1.62-1.67h0l.05-.08s.02-.03,0,0c-.03,.04,0,0,0,0l.05-.08h0s-.05-.09-.06-.16h0l-1.7-1.64s-.28-.09-.4,0c-.08,.11-.08,.28,0,.4l1.25,1.22-.06-.16Zm-3.12,.23c0-.73-.32-1.41-.82-1.92l-.27-.19c.05-.08,.08-.11,.06-.24l.34,.24c.53,.54,.89,1.24,.88,2.08,.01,.79-.32,1.51-.82,2.06-.54,.52-1.24,.87-2.07,.85-.67-.02-1.31-.24-1.81-.59l.32-.05c.42,.29,.95,.44,1.51,.44,.73,0,1.41-.3,1.92-.79,.47-.51,.79-1.13,.75-1.88h0Z"/>
      <path class="cls-3" d="M86.58,231.41c.37,.37,.77,.77,1.11,1.17,.28,.25,.49,.51,.77,.77l.04,.03-.03,.04c-.22,.24-.45,.47-.67,.71-.39,.4-.79,.8-1.14,1.22-.13,.19-.4,.17-.54-.04-.09-.12-.06-.32,.06-.41,.16-.23,.37-.36,.52-.59s.39-.4,.59-.6h0c-1.4-.03-2.83-.02-4.2-.02-.17,0-.32-.11-.38-.27-.04-.19,.07-.34,.26-.38,0,0,.04,.03,.1,.02,1.36,0,2.79,0,4.16,0h0c-.2-.2-.37-.37-.57-.57-.16-.17-.37-.37-.53-.54-.11-.08-.11-.25-.1-.35,.08-.11,.13-.19,.26-.21s.23,0,.32,.11h0l-.05-.09Zm-1.66,5.29l.27,.19c.02,.13,.05,.26-.07,.34-.13,.19-.33,.39-.5,.55-.16,.23-.37,.36-.56,.56h0c1.4,.03,2.83,.02,4.2,.02,0,0,.04,.03,.1,.02,.17,0,.31,.21,.28,.42s-.18,.26-.34,.32c-1.36,0-2.79,0-4.16,0h0c.16,.17,.37,.37,.57,.57,.16,.17,.37,.37,.53,.54,.11,.08,.12,.31,.04,.42-.13,.19-.39,.23-.55,.06-.41-.4-.78-.83-1.19-1.23-.24-.22-.46-.49-.7-.71l-.04-.03,.03-.04c.25-.27,.47-.51,.72-.78,.39-.4,.72-.78,1.11-1.18,.08-.11,.18-.1,.28-.08l-.03,.04Zm4.24-8.08c-3.21,.84-6.48,1.69-9.68,2.52-1.31,.32-2.64,.68-3.94,.99-.03,.04-.09,.05-.08,.11,.05,2.45,.07,4.93,.08,7.35-.03,.04,.02,.13,.11,.08,4.02,1.08,8.02,2.2,12.09,3.31,.77,.2,1.54,.41,2.28,.65l.04,.03c-.07-5.1-.13-10.13-.22-15.19l.03-.04h0c-.22,.07-.41,.1-.63,.17h-.06Z"/>
      <path class="cls-4" d="M81.14,192.54l.04,3.11h-3.76s-.04-3.11-.04-3.11c-.02-1.19,.69-2.04,1.82-2.03s1.89,.88,1.94,2.03h0Zm5.3,3.16h-2.63s-.04-3.5-.04-3.5c-.05-3.01-2.15-4.65-4.54-4.64-2.43-.02-4.46,1.64-4.4,4.66l.09,6.46h11.61s.01,1.53,.01,1.53l3.04-3.03-3.09-3.06,.03,1.59h-.06Z"/>
      <g>
        <path class="cls-3" d="M737.24,284.08c.07,.86,.2,1.72,.27,2.52,0,.6-.33,1.06-.86,1.06s-.93-.33-1-.93c-.13-1-.2-1.99-.33-2.99-.07-.73-.13-1.39-.2-2.12,0-.27-.13-.4-.46-.33-.6,0-1.19,.13-1.79,.2-.33,0-.46-.13-.4-.46,.27-1.53,.53-3.12,.8-4.64,.2-1,.73-1.86,1.53-2.45,1.13-.86,2.32-1.66,3.45-2.52,1.13-.8,2.52-.13,2.72,1.19,.07,.73,.2,1.46,.27,2.19,0,.33,.2,.6,.53,.73,.73,.33,1.46,.66,2.19,1,.4,.13,.53,.46,.46,.8-.07,.46-.53,.73-1.06,.53-1.06-.46-2.06-.86-3.12-1.33-.27-.13-.4-.33-.46-.6,0-.33-.07-.66-.13-.93,0-.27-.13-.27-.33-.13-.53,.4-1.06,.8-1.59,1.13-.2,.13-.27,.27-.13,.53,.53,1.26,1.06,2.45,1.59,3.72v.13c.13,.33,0,.46-.33,.53-.53,0-1.13,.13-1.66,.2-.33,0-.4,.13-.4,.46,.07,.86,.2,1.72,.27,2.52h.2Z"/>
        <path class="cls-3" d="M746.2,280.3c0,.4,.07,.86,.13,1.26,0,.46-.27,.86-.66,.93-.93,.13-1.86,.2-2.85,.27-.53,0-1-.2-1.33-.6-.33-.4-.33-.86-.13-1.33,.13-.33,.27-.66,.4-1,.07-.2,0-.27-.13-.33-.33-.13-.6-.27-.93-.4-.46-.2-.66-.8-.27-1.13,.13-.13,.27-.2,.4-.2h.33c.6,.27,1.19,.53,1.86,.8h0c.66,.33,.8,.73,.53,1.46q-.27,.53,.33,.46c.4,0,.73-.07,1.13-.13,.13,0,.2-.07,.2-.2,0-.33-.07-.66-.13-1.06,0-.33,.13-.53,.46-.6,.33,0,.53,.13,.6,.46,0,.46,.07,.86,.13,1.33h-.07Z"/>
        <path class="cls-3" d="M742.09,271.8h0c-.86,.07-1.59-.53-1.72-1.39h0c-.07-.86,.53-1.59,1.39-1.72,.86-.07,1.59,.53,1.72,1.39h0c.07,.86-.53,1.59-1.39,1.72h0Z"/>
        <path class="cls-3" d="M745.27,283.81l-3.91,.4h-.2c-.2,0-.33-.13-.33-.33h0s.07-.4,.27-.4h.13l7.96-.86h.13c.2,0,.33,.13,.4,.33q.04,.13,0,0c-.07-.2-.13,.4-.33,.4h-.13l-3.91,.4-.07,.07Z"/>
        <path class="cls-3" d="M747.59,279.83h0c.66-.07,1.19,.4,1.26,1,.07,.66-.4,1.19-1,1.26h0c-.66,.07-1.19-.4-1.26-1.06s.4-1.19,1-1.26h0v.07Z"/>
        <rect class="cls-2" x="688.76" y="270.47" width="15.72" height="15.79"/>
        <path class="cls-1" d="M704.48,286.52h-15.72s-.27-.13-.27-.27v-15.79s.13-.27,.27-.27h15.72s.27,.13,.27,.27v15.79s-.13,.27-.27,.27Zm-15.46-.53h15.19v-15.26h-15.19v15.26Z"/>
        <polygon class="cls-3" points="691.54 276.9 695.12 276.9 695.12 273.25 698.11 273.25 698.11 276.9 701.76 276.9 701.76 279.89 698.11 279.89 698.11 283.47 695.12 283.47 695.12 279.89 691.54 279.89 691.54 276.9"/>
      </g>
    </g>
  </g>
</svg>