<?xml version="1.0" encoding="UTF-8"?>
<svg id="_Слой_2" data-name="Слой 2" xmlns="http://www.w3.org/2000/svg" viewBox="0 0 496.69 775.61">
  <defs>
    <style>
      .cls-1, .cls-2 {
        fill: #25254c;
      }

      .cls-2 {
        fill-rule: evenodd;
      }
    </style>
  </defs>
  <g id="_1_этаж" data-name="1 этаж">
    <g id="static_floor">
      <path class="cls-2" d="M177.47,293.63c.35-.36,.64-.64,0,0h0Zm11-7.03h-3.61c-.15-.01-.33-.02-.41,.06l-4.98,4.98-2,2c-1,1-.44,.44,0,0h0c-.55,.54-1.78,1.78-4.22,4.22-.21,.19-.4,.34-.63,.43-.23,.09-.46,.13-.75,.13h-4.57c-.38,.41-.62,.95-.62,1.56v.97c0,1.26,1.04,2.3,2.3,2.3h4.51l11.82-11.82h1.46c1.26,0,2.3-1.04,2.3-2.3v-.97c0-.54-.19-1.05-.51-1.44l-.1-.11h.01Zm-2.86,5.5l-11.82,11.82h-4.79c-1.64,0-2.99-1.34-2.99-2.99v-.97c0-1.64,1.34-2.99,2.99-2.99h2.82c.14,0,.16,0,.29-.12l1.09-1.09h.05c.34,.02,.67-.11,.9-.36l2.04-2.03,.64-.64c.26-.26,.37-.61,.33-.94l1.09-1.09h.08c.34,.02,.67-.11,.9-.36l2.68-2.67c.27-.27,.38-.63,.33-.97l1.23-1.22c.29-.32,.48-.35,.9-.35h2.42c1.64,0,2.99,1.34,2.99,2.99v.97c0,1.64-1.34,2.99-2.99,2.99h-1.17v.02Zm-6.42-10.39c-.8-.18-1.61,.4-1.82,1.3s.28,1.78,1.08,1.96c.8,.18,1.61-.4,1.82-1.3s-.28-1.78-1.08-1.96Zm-1.39,5.27c.02-.4,.37-.71,.77-.68,.4,.02,.71,.37,.68,.77l-.04,.66,1.35-1.34c.28-.28,.74-.28,1.03,0,.28,.29,.28,.74,0,1.03l-2.68,2.67c-.14,.15-.35,.25-.57,.23-.4-.02-.71-.37-.68-.77l.15-2.56h-.01Zm-4.62,3.44h0c.41,.01,.77,.21,1.02,.5,.18,.22,.31,.49,.36,.8h-.01c-.13-.44-.54-.78-1.04-.81-.64-.04-1.18,.45-1.22,1.08l-.15,2.56c-.02,.44,.21,.83,.55,1.05l-.95,.95v-4.6c0-.44,.15-.83,.42-1.11,.27-.28,.64-.45,1.04-.43h-.01Zm.91-3.66c-.8-.18-1.61,.4-1.82,1.3s.28,1.78,1.08,1.96c.8,.18,1.62-.4,1.82-1.3,.21-.9-.28-1.78-1.08-1.96Zm-1.39,5.27c.02-.4,.37-.71,.77-.68,.4,.02,.71,.37,.68,.77l-.04,.66,1.35-1.34c.29-.28,.74-.28,1.03,0,.29,.29,.28,.74,0,1.03l-2.68,2.67c-.14,.15-.35,.25-.57,.23-.4-.02-.71-.37-.68-.77l.15-2.56h-.01Zm13.79,3.43v4.54c0,.25-.19,.44-.44,.44s-.44-.19-.44-.44v-4.53l-2.04,2.04c-.17,.17-.45,.17-.62,0-.17-.17-.17-.45,0-.63l2.76-2.76,.03-.03s.09-.07,.14-.09h0c.05-.02,.1-.03,.16-.03h.06c.09,.01,.17,.05,.25,.12l.03,.03,2.76,2.76c.17,.17,.17,.45,0,.63s-.45,.17-.63,0l-2.05-2.05h.02Zm-8.24-10.07h0c.41,.01,.77,.21,1.02,.5,.18,.22,.31,.49,.36,.8h-.01c-.13-.44-.54-.78-1.04-.81-.64-.03-1.18,.45-1.22,1.08l-.15,2.56c-.03,.44,.21,.84,.55,1.06l-.95,.95v-4.6c0-.44,.16-.83,.42-1.11,.27-.28,.64-.44,1.04-.43h-.01Z"/>
      <path class="cls-2" d="M177.47,445.99c.35-.36,.64-.64,0,0h0Zm11-7.03h-3.61c-.15-.01-.33-.02-.41,.06l-4.98,4.98-2,2c-1,1-.44,.44,0,0h0c-.55,.54-1.78,1.78-4.22,4.22-.21,.19-.4,.34-.63,.43-.23,.09-.46,.13-.75,.13h-4.57c-.38,.41-.62,.95-.62,1.56v.97c0,1.26,1.04,2.3,2.3,2.3h4.51l11.82-11.82h1.46c1.26,0,2.3-1.04,2.3-2.3v-.97c0-.54-.19-1.05-.51-1.44l-.1-.11h.01Zm-2.86,5.5l-11.82,11.82h-4.79c-1.64,0-2.99-1.34-2.99-2.99v-.97c0-1.64,1.34-2.99,2.99-2.99h2.82c.14,0,.16,0,.29-.12l1.09-1.09h.05c.34,.02,.67-.11,.9-.36l2.04-2.03,.64-.64c.26-.26,.37-.61,.33-.94l1.09-1.09h.08c.34,.02,.67-.11,.9-.36l2.68-2.67c.27-.27,.38-.63,.33-.97l1.23-1.22c.29-.32,.48-.35,.9-.35h2.42c1.64,0,2.99,1.34,2.99,2.99v.97c0,1.64-1.34,2.99-2.99,2.99h-1.17v.02Zm-6.42-10.39c-.8-.18-1.61,.4-1.82,1.3s.28,1.78,1.08,1.96c.8,.18,1.61-.4,1.82-1.3s-.28-1.78-1.08-1.96Zm-1.39,5.27c.02-.4,.37-.71,.77-.68,.4,.02,.71,.37,.68,.77l-.04,.66,1.35-1.34c.28-.28,.74-.28,1.03,0,.28,.29,.28,.74,0,1.03l-2.68,2.67c-.14,.15-.35,.25-.57,.23-.4-.02-.71-.37-.68-.77l.15-2.56h-.01Zm-4.62,3.44h0c.41,.01,.77,.21,1.02,.5,.18,.22,.31,.49,.36,.8h-.01c-.13-.44-.54-.78-1.04-.81-.64-.04-1.18,.45-1.22,1.08l-.15,2.56c-.02,.44,.21,.83,.55,1.05l-.95,.95v-4.6c0-.44,.15-.83,.42-1.11,.27-.28,.64-.45,1.04-.43h-.01Zm.91-3.66c-.8-.18-1.61,.4-1.82,1.3s.28,1.78,1.08,1.96c.8,.18,1.62-.4,1.82-1.3,.21-.9-.28-1.78-1.08-1.96Zm-1.39,5.27c.02-.4,.37-.71,.77-.68,.4,.02,.71,.37,.68,.77l-.04,.66,1.35-1.34c.29-.28,.74-.28,1.03,0,.29,.29,.28,.74,0,1.03l-2.68,2.67c-.14,.15-.35,.25-.57,.23-.4-.02-.71-.37-.68-.77l.15-2.56h-.01Zm13.79,3.43v4.54c0,.25-.19,.44-.44,.44s-.44-.19-.44-.44v-4.53l-2.04,2.04c-.17,.17-.45,.17-.62,0-.17-.17-.17-.45,0-.63l2.76-2.76,.03-.03s.09-.07,.14-.09h0c.05-.02,.1-.03,.16-.03h.06c.09,.01,.17,.05,.25,.12l.03,.03,2.76,2.76c.17,.17,.17,.45,0,.63s-.45,.17-.63,0l-2.05-2.05h.02Zm-8.24-10.07h0c.41,.01,.77,.21,1.02,.5,.18,.22,.31,.49,.36,.8h-.01c-.13-.44-.54-.78-1.04-.81-.64-.03-1.18,.45-1.22,1.08l-.15,2.56c-.03,.44,.21,.84,.55,1.06l-.95,.95v-4.6c0-.44,.16-.83,.42-1.11,.27-.28,.64-.44,1.04-.43h-.01Z"/>
      <path class="cls-2" d="M484.39,445.99c.35-.36,.64-.64,0,0h0Zm11-7.03h-3.61c-.15-.01-.33-.02-.41,.06l-4.98,4.98-2,2c-1,1-.44,.44,0,0h0c-.55,.54-1.78,1.78-4.22,4.22-.21,.19-.4,.34-.63,.43-.23,.09-.46,.13-.75,.13h-4.57c-.38,.41-.62,.95-.62,1.56v.97c0,1.26,1.04,2.3,2.3,2.3h4.51l11.82-11.82h1.46c1.26,0,2.3-1.04,2.3-2.3v-.97c0-.54-.19-1.05-.51-1.44l-.1-.11h.01Zm-2.86,5.5l-11.82,11.82h-4.79c-1.64,0-2.99-1.34-2.99-2.99v-.97c0-1.64,1.34-2.99,2.99-2.99h2.82c.14,0,.16,0,.29-.12l1.09-1.09h.05c.34,.02,.67-.11,.9-.36l2.04-2.03,.64-.64c.26-.26,.37-.61,.33-.94l1.09-1.09h.08c.34,.02,.67-.11,.9-.36l2.68-2.67c.27-.27,.38-.63,.33-.97l1.23-1.22c.29-.32,.48-.35,.9-.35h2.42c1.64,0,2.99,1.34,2.99,2.99v.97c0,1.64-1.34,2.99-2.99,2.99h-1.17v.02Zm-6.42-10.39c-.8-.18-1.61,.4-1.82,1.3s.28,1.78,1.08,1.96c.8,.18,1.61-.4,1.82-1.3s-.28-1.78-1.08-1.96Zm-1.39,5.27c.02-.4,.37-.71,.77-.68,.4,.02,.71,.37,.68,.77l-.04,.66,1.35-1.34c.28-.28,.74-.28,1.03,0,.28,.29,.28,.74,0,1.03l-2.68,2.67c-.14,.15-.35,.25-.57,.23-.4-.02-.71-.37-.68-.77l.15-2.56h-.01Zm-4.62,3.44h0c.41,.01,.77,.21,1.02,.5,.18,.22,.31,.49,.36,.8h-.01c-.13-.44-.54-.78-1.04-.81-.64-.04-1.18,.45-1.22,1.08l-.15,2.56c-.02,.44,.21,.83,.55,1.05l-.95,.95v-4.6c0-.44,.15-.83,.42-1.11,.27-.28,.64-.45,1.04-.43h-.01Zm.91-3.66c-.8-.18-1.61,.4-1.82,1.3s.28,1.78,1.08,1.96c.8,.18,1.62-.4,1.82-1.3,.21-.9-.28-1.78-1.08-1.96Zm-1.39,5.27c.02-.4,.37-.71,.77-.68,.4,.02,.71,.37,.68,.77l-.04,.66,1.35-1.34c.29-.28,.74-.28,1.03,0,.29,.29,.28,.74,0,1.03l-2.68,2.67c-.14,.15-.35,.25-.57,.23-.4-.02-.71-.37-.68-.77l.15-2.56h-.01Zm13.79,3.43v4.54c0,.25-.19,.44-.44,.44s-.44-.19-.44-.44v-4.53l-2.04,2.04c-.17,.17-.45,.17-.62,0-.17-.17-.17-.45,0-.63l2.76-2.76,.03-.03s.09-.07,.14-.09h0c.05-.02,.1-.03,.16-.03h.06c.09,.01,.17,.05,.25,.12l.03,.03,2.76,2.76c.17,.17,.17,.45,0,.63s-.45,.17-.63,0l-2.05-2.05h.02Zm-8.24-10.07h0c.41,.01,.77,.21,1.02,.5,.18,.22,.31,.49,.36,.8h-.01c-.13-.44-.54-.78-1.04-.81-.64-.03-1.18,.45-1.22,1.08l-.15,2.56c-.03,.44,.21,.84,.55,1.06l-.95,.95v-4.6c0-.44,.16-.83,.42-1.11,.27-.28,.64-.44,1.04-.43h-.01Z"/>
      <path class="cls-2" d="M33.49,761.07l-.11,.12c-.12,.12-.63,.52-.76,.55-.06,.13-.27,.26-.38,.35-.83,.67-.84,.47-.97,1.12,.18,.19,.52,1.25,.66,1.6,.12,.28,.21,.53,.58,.49,.98-.09-.03-1.53-.14-2.09,.24-.1,.68-.55,1.02-.73l-.11,5.21-.5,1.4c-.05,.12-.06,.22-.13,.29-.06,.23-.58,1.16,.19,1.33,.52,.12,.64-.33,.74-.6,.05-.14,.08-.25,.17-.36,0-.14,.54-1.62,.62-1.68,.05-.31,.1-1.79,.06-2.09v-.57c.2-.05,.04-.02,.1,.02l1.1,.71c-.02,.38-.05,.78-.09,1.16-.09,1.02,.11,.68,.16,.93,.42,.16,.54,.14,.81-.13l.07-.08s.01-.02,.03-.03c-.02-.37,.1-1.26,.14-1.7,.03-.31,.1-.58-.1-.79-.15-.16-.38-.22-.5-.4-.14-.02-.09-.01-.27-.14-.1-.06-.15-.1-.25-.17-.17-.12-.35-.21-.53-.35l.03-1.57c.16,.13,.3,.35,.44,.53,.23,.28,.2,.25,.6,.34,.12-.08,.37-.12,.55-.14,.19-.08,.79-.18,1.04-.23,.2-.04,.32-.08,.43-.21,.12-.14,.14-.32,.07-.49-.24-.6-1.39-.04-2.01,.01l-.51-.64c-.17-.23-.33-.42-.49-.62-.21-.28-.26-.41-.74-.42-.5,0-.62-.01-1.01,.08m6.46,5.05c.19,.05,1.35,.02,1.64,.02,2.59,0,2.37,.18,2.37-.89,0-.84,.13-1.2-.42-1.21h-3.31c-.24,0-.54-.03-.66,.12-.22,.27,.08,.4,.14,.58,0,.42-.14,1.27,.25,1.38h0Zm1.64,.44l-.21-.16c-.86-.01-1.73,0-2.59,0-.69,0-1.57-.16-1.64,.27-.04,.23,.09,.29,.19,.36-.01,1.2-.14,1.47,.43,1.48,.43,0,3.59,.05,3.73-.07,.18-.16,.11-1.53,.08-1.87h0Zm-2.36,4.11c.03-.46-.07-1.31,.04-1.69-.28-.34-.31-.24-1.2-.24h-2.85c-.8,.01-.26,.66-.26,.66,.08,.24-.15,1.28,.19,1.42,.14,.05,1.19,.03,1.43,.03h2.12c.42,0,.38-.03,.52-.18Zm-6.66,1.07c.15,.16-.01,.97,.07,1.25,.1,.34,.79,.21,1.15,.21,.89,0,1.79-.01,2.68,0,.19,0,.23-.02,.36-.07,.09-.32,.05-1.03,.05-1.5,0-.66-.16-.53-1.06-.54-.62,0-2.73,.08-3.18-.02-.1,.11-.21,.13-.23,.31-.02,.23,.09,.19,.15,.36Zm-2.43,1.83c-.1,.15-.05,.29-.03,.44,.23,.1,.14,.36,.14,.64s.01,.51,.03,.77c.3,.18,.47,.15,.91,.15h1.02c.67,0,1.42,.03,2.08,0,.12-.1,.16-.07,.21-.27,.03-.14,.01-.35,.01-.51v-1.1c-.15-.18-.04-.06-.22-.21-.71-.03-1.46,0-2.16,0-.44,0-1.71-.12-1.99,.11h-.01Zm4.18-14.91c-1.16,.36-.75,2.36,.49,2.03,.47-.12,.84-.64,.7-1.27-.11-.49-.58-.94-1.19-.75Z"/>
      <g>
        <path class="cls-1" d="M72.86,293.87h-1.12c-.14,0-.26,.05-.38,.11-.07,.05-.1,.11-.11,.19,0,.06,0,.11,.03,.16,.02,.07,.07,.11,.11,.17l.08,.08c.34,.33,.69,.66,1.01,1.01,.06,.06,.11,.1,.19,.14,.11,.06,.22,.05,.32-.01,.03-.02,.07-.05,.1-.08,.4-.37,.78-.74,1.14-1.14,.09-.1,.13-.23,.13-.37,0-.05-.02-.08-.06-.1-.1-.08-.21-.14-.33-.15-.15-.01-.3-.01-.43,0h-.69m-13.63-10.03h16.62v18.98h-8.01c-.23,0-.45-.17-.48-.42-.03-.25,.11-.49,.35-.56,.05-.01,.09-.02,.14-.02h1.76c.08,0,.13-.03,.15-.11,0-.05,.01-.09,.02-.14v-16.62c-.02-.1-.06-.14-.16-.15h-9.65c-.08,0-.13,.06-.15,.14v3.78c0,.1,0,.22-.06,.32-.07,.15-.16,.27-.33,.32-.19,.06-.35,0-.48-.17-.07-.09-.09-.19-.1-.3v-4.35c0-.1,0-.21,.03-.31,.05-.16,.14-.29,.27-.38,.02-.01,.05-.02,.07-.02v.02Zm13.58,8.95c.4,0,.8,0,1.2-.03,.1,0,.18-.05,.26-.1,.05-.03,.07-.07,.08-.13,.02-.14-.01-.25-.09-.35-.08-.09-.16-.18-.25-.27-.3-.3-.6-.61-.89-.9-.03-.03-.08-.07-.13-.09-.1-.06-.21-.06-.32,0-.05,.03-.09,.07-.14,.1-.41,.38-.79,.79-1.16,1.19-.05,.05-.07,.09-.08,.15,0,.07,0,.14-.01,.21,0,.06,.02,.09,.07,.11,.06,.03,.11,.06,.17,.07,.09,0,.18,.02,.26,.02,.34,0,.68,.01,1.02,.02h0Z"/>
        <path class="cls-1" d="M64.48,300.6c0-.38,0-.74-.02-1.12,0-.08,0-.17-.03-.25-.02-.06-.05-.11-.08-.17l-.82-1.06c-.39-.52-.79-1.03-1.18-1.55-.09-.11-.18-.24-.27-.35-.06-.07-.11-.14-.17-.21-.21-.3-.35-.61-.45-.96,0-.03-.01-.07-.01-.11v-1.45c0-.65,.02-1.3,.03-1.96,0-.19,0-.38,.03-.57,.01-.18,.05-.37,.1-.54,.03-.09,.07-.18,.14-.26l.07-.07c.25-.16,.53-.27,.82-.3,.53-.06,.98,.11,1.36,.47,.09,.09,.17,.18,.25,.29,.32,.45,.61,.9,.92,1.36,.13,.19,.25,.39,.38,.58,.03,.05,.07,.1,.11,.15,.14,.16,.31,.25,.53,.26,.13,.01,.26,.02,.39,.03,.22,.02,.43,.06,.65,.08,.25,.03,.49,.08,.74,.11,.14,.02,.25,.07,.37,.15,.23,.17,.33,.41,.27,.7-.05,.29-.22,.47-.49,.56-.14,.05-.27,.05-.42,.03-.24-.03-.49-.07-.74-.1-.26-.03-.53-.08-.79-.11-.17-.02-.35-.05-.53-.07-.14-.02-.27-.05-.41-.07-.01,0-.02,0-.05-.01-.1-.02-.19-.07-.24-.17-.5-.73-1-1.46-1.5-2.2-.01-.01-.02-.03-.03-.05-.05-.05-.1-.06-.15-.02-.05,.03-.06,.09-.03,.15,0,.02,.02,.03,.03,.06,.39,.57,.78,1.13,1.17,1.71,.02,.03,.03,.07,.03,.11v2.6s.01,.09,.03,.13c.03,.07,.07,.14,.1,.19,.45,.6,.9,1.17,1.36,1.74,.15,.19,.24,.41,.27,.65,0,.1,.01,.21,.01,.31v1.98c0,.18-.01,.37-.03,.56-.02,.27-.13,.52-.33,.7-.19,.18-.42,.23-.69,.16-.05-.01-.09-.02-.14-.05-.3-.11-.47-.34-.53-.65-.01-.09-.02-.17-.02-.26,0-.37-.01-.74-.02-1.11h0"/>
        <path class="cls-1" d="M61.45,295.56s.01,.02,.02,.05c.09,.18,.19,.35,.32,.52,.34,.46,.7,.93,1.05,1.38,.02,.03,.03,.07,.02,.1-.16,.55-.32,1.1-.48,1.64-.05,.14-.09,.27-.15,.41-.07,.17-.17,.32-.31,.43-.4,.32-.81,.64-1.21,.96-.33,.26-.68,.53-1,.8-.15,.13-.31,.22-.5,.26-.38,.08-.76-.09-.92-.45-.03-.07-.05-.15-.06-.23-.01-.07-.02-.13-.02-.19s0-.14,.02-.21c.01-.06,.03-.1,.07-.14,.16-.21,.35-.39,.56-.55,.22-.17,.45-.34,.68-.52,.07-.05,.13-.1,.19-.15,.17-.16,.37-.3,.55-.43,.09-.06,.17-.13,.26-.19,.06-.05,.09-.09,.13-.15,.05-.1,.09-.19,.13-.3,.16-.52,.32-1.03,.48-1.55,.03-.13,.08-.25,.11-.38,.05-.11,.06-.24,.06-.37v-.76h0"/>
        <path class="cls-1" d="M63.91,286.34c.32,0,.61,.1,.86,.31,.3,.24,.49,.54,.56,.92,.06,.31,0,.6-.14,.88-.21,.39-.5,.68-.93,.8-.47,.14-.9,.05-1.29-.26-.29-.23-.47-.52-.55-.87-.13-.61,.14-1.42,.98-1.69,.17-.06,.34-.08,.52-.08"/>
      </g>
      <g>
        <path class="cls-1" d="M72.86,431.75h-1.12c-.14,0-.26,.05-.38,.11-.07,.05-.1,.11-.11,.19,0,.06,0,.11,.03,.16,.02,.07,.07,.11,.11,.17l.08,.08c.34,.33,.69,.66,1.01,1.01,.06,.06,.11,.1,.19,.14,.11,.06,.22,.05,.32-.01,.03-.02,.07-.05,.1-.08,.4-.37,.78-.74,1.14-1.14,.09-.1,.13-.23,.13-.37,0-.05-.02-.08-.06-.1-.1-.08-.21-.14-.33-.15-.15-.01-.3-.01-.43,0h-.69m-13.63-10.03h16.62v18.98h-8.01c-.23,0-.45-.17-.48-.42-.03-.25,.11-.49,.35-.56,.05-.01,.09-.02,.14-.02h1.76c.08,0,.13-.03,.15-.11,0-.05,.01-.09,.02-.14v-16.62c-.02-.1-.06-.14-.16-.15h-9.65c-.08,0-.13,.06-.15,.14v3.78c0,.1,0,.22-.06,.32-.07,.15-.16,.27-.33,.32-.19,.06-.35,0-.48-.17-.07-.09-.09-.19-.1-.3v-4.35c0-.1,0-.21,.03-.31,.05-.16,.14-.29,.27-.38,.02-.01,.05-.02,.07-.02v.02Zm13.58,8.95c.4,0,.8,0,1.2-.03,.1,0,.18-.05,.26-.1,.05-.03,.07-.07,.08-.13,.02-.14-.01-.25-.09-.35-.08-.09-.16-.18-.25-.27-.3-.3-.6-.61-.89-.9-.03-.03-.08-.07-.13-.09-.1-.06-.21-.06-.32,0-.05,.03-.09,.07-.14,.1-.41,.38-.79,.79-1.16,1.19-.05,.05-.07,.09-.08,.15,0,.07,0,.14-.01,.21,0,.06,.02,.09,.07,.11,.06,.03,.11,.06,.17,.07,.09,0,.18,.02,.26,.02,.34,0,.68,.01,1.02,.02h0Z"/>
        <path class="cls-1" d="M64.48,438.48c0-.38,0-.74-.02-1.12,0-.08,0-.17-.03-.25-.02-.06-.05-.11-.08-.17l-.82-1.06c-.39-.52-.79-1.03-1.18-1.55-.09-.11-.18-.24-.27-.35-.06-.07-.11-.14-.17-.21-.21-.3-.35-.61-.45-.96,0-.03-.01-.07-.01-.11v-1.45c0-.65,.02-1.3,.03-1.96,0-.19,0-.38,.03-.57,.01-.18,.05-.37,.1-.54,.03-.09,.07-.18,.14-.26l.07-.07c.25-.16,.53-.27,.82-.3,.53-.06,.98,.11,1.36,.47,.09,.09,.17,.18,.25,.29,.32,.45,.61,.9,.92,1.36,.13,.19,.25,.39,.38,.58,.03,.05,.07,.1,.11,.15,.14,.16,.31,.25,.53,.26,.13,.01,.26,.02,.39,.03,.22,.02,.43,.06,.65,.08,.25,.03,.49,.08,.74,.11,.14,.02,.25,.07,.37,.15,.23,.17,.33,.41,.27,.7-.05,.29-.22,.47-.49,.56-.14,.05-.27,.05-.42,.03-.24-.03-.49-.07-.74-.1-.26-.03-.53-.08-.79-.11-.17-.02-.35-.05-.53-.07-.14-.02-.27-.05-.41-.07-.01,0-.02,0-.05-.01-.1-.02-.19-.07-.24-.17-.5-.73-1-1.46-1.5-2.2-.01-.01-.02-.03-.03-.05-.05-.05-.1-.06-.15-.02-.05,.03-.06,.09-.03,.15,0,.02,.02,.03,.03,.06,.39,.57,.78,1.13,1.17,1.71,.02,.03,.03,.07,.03,.11v2.6s.01,.09,.03,.13c.03,.07,.07,.14,.1,.19,.45,.6,.9,1.17,1.36,1.74,.15,.19,.24,.41,.27,.65,0,.1,.01,.21,.01,.31v1.98c0,.18-.01,.37-.03,.56-.02,.27-.13,.52-.33,.7-.19,.18-.42,.23-.69,.16-.05-.01-.09-.02-.14-.05-.3-.11-.47-.34-.53-.65-.01-.09-.02-.17-.02-.26,0-.37-.01-.74-.02-1.11h0"/>
        <path class="cls-1" d="M61.45,433.43s.01,.02,.02,.05c.09,.18,.19,.35,.32,.52,.34,.46,.7,.93,1.05,1.38,.02,.03,.03,.07,.02,.1-.16,.55-.32,1.1-.48,1.64-.05,.14-.09,.27-.15,.41-.07,.17-.17,.32-.31,.43-.4,.32-.81,.64-1.21,.96-.33,.26-.68,.53-1,.8-.15,.13-.31,.22-.5,.26-.38,.08-.76-.09-.92-.45-.03-.07-.05-.15-.06-.23-.01-.07-.02-.13-.02-.19s0-.14,.02-.21c.01-.06,.03-.1,.07-.14,.16-.21,.35-.39,.56-.55,.22-.17,.45-.34,.68-.52,.07-.05,.13-.1,.19-.15,.17-.16,.37-.3,.55-.43,.09-.06,.17-.13,.26-.19,.06-.05,.09-.09,.13-.15,.05-.1,.09-.19,.13-.3,.16-.52,.32-1.03,.48-1.55,.03-.13,.08-.25,.11-.38,.05-.11,.06-.24,.06-.37v-.76h0"/>
        <path class="cls-1" d="M63.91,424.22c.32,0,.61,.1,.86,.31,.3,.24,.49,.54,.56,.92,.06,.31,0,.6-.14,.88-.21,.39-.5,.68-.93,.8-.47,.14-.9,.05-1.29-.26-.29-.23-.47-.52-.55-.87-.13-.61,.14-1.42,.98-1.69,.17-.06,.34-.08,.52-.08"/>
      </g>
      <polygon class="cls-2" points="14.74 352.15 14.74 371.81 24.59 361.95 14.74 352.15"/>
      <polygon class="cls-2" points="32.1 627.89 32.1 647.55 41.95 637.7 32.1 627.89"/>
    </g>
  </g>
</svg>