<?xml version="1.0" encoding="UTF-8"?>
<svg id="_Слой_2" data-name="Слой 2" xmlns="http://www.w3.org/2000/svg" viewBox="0 0 562.46 90.13">
  <defs>
    <style>
      .cls-1 {
        fill: #fff;
      }
    </style>
  </defs>
  <g id="_3_этаж" data-name="3 этаж">
    <g id="static_up">
      <g>
        <g>
          <path class="cls-1" d="M516.62,72.97c-.64-.01-1.16,.55-1.18,1.26-.01,.71,.49,1.3,1.11,1.31,.63,.01,1.16-.55,1.18-1.26,.01-.71-.49-1.3-1.11-1.31"/>
          <path class="cls-1" d="M515.43,76.31c-.1,.06-.2,.13-.29,.21-.38,.32-.6,.79-.6,1.29,0,.78,0,1.55,.01,2.34l-.53,2.3c-.07,.3-.36,.49-.67,.42s-.49-.36-.42-.67l1.26-5.53c.05-.22,.22-.37,.41-.42h0l.69-.17c.04,.07,.09,.15,.13,.23"/>
          <path class="cls-1" d="M519.89,82.36c.05,.3-.15,.59-.45,.65s-.59-.15-.65-.45l-.42-2.32c.04-.78,.08-1.55,.11-2.33,.03-.5-.18-.97-.54-1.32-.09-.08-.18-.16-.28-.22l.14-.22,.68,.2h0c.2,.06,.36,.22,.39,.44l1.01,5.59h0Z"/>
          <path class="cls-1" d="M518.07,81.57c0,.09,.01,.18,.01,.27l.22,7.62c.01,.36-.28,.66-.64,.68-.36,.01-.66-.28-.68-.64l-.18-6.19h0c0-.21-.18-.38-.41-.39-.22,0-.41,.16-.42,.36h0l-.46,6.17c-.03,.36-.34,.64-.7,.61-.36-.03-.64-.34-.61-.7l.57-7.6c0-.09,.01-.19,.03-.27,.55-.09,1.09-.14,1.63-.12,.54,.01,1.09,.07,1.63,.2"/>
          <path class="cls-1" d="M516.55,76.35h0c.47,.01,.88,.19,1.18,.47,.29,.28,.46,.65,.44,1.06-.05,.91-.09,1.82-.14,2.72-.01,.26,0,.45,0,.62-.53-.11-1.06-.17-1.59-.18-.53-.01-1.07,.03-1.59,.11,.02-.18,.03-.36,.03-.61,0-.91,0-1.82-.01-2.73,0-.41,.18-.78,.49-1.04,.3-.26,.73-.42,1.2-.41"/>
          <path class="cls-1" d="M509.24,70.76h0c.14,0,.24,.11,.24,.25l-.34,15.39c0,.14-.11,.24-.25,.24-.14,0-.24-.11-.24-.25l.34-15.39c0-.14,.11-.24,.25-.24"/>
          <path class="cls-1" d="M505.52,77.03c-.42-2.13-.84-4.27-1.26-6.4h0c-.1-.41-.3-.78-.62-1.03-.24-.19-.52-.3-.82-.32-.3,0-.59,.11-.83,.28-.33,.24-.55,.6-.67,.99h0c-.51,2.12-1.03,4.24-1.54,6.35-.03,.1,0,.2,.04,.23,.05,.04,.18,.03,.26-.01,.89-.55,1.74-.84,2.59-.84,.84,.03,1.69,.36,2.55,.95,.08,.05,.2,.06,.26,.03,.05-.03,.07-.13,.05-.22"/>
          <path class="cls-1" d="M502.86,82.46c-.01,.31,.23,.57,.54,.58,.31,.01,.57-.23,.57-.54l.2-5.49c-.34-.16-.7-.28-1.06-.35-.03,.06-.05,.14-.05,.21l-.21,5.59h0Z"/>
          <path class="cls-1" d="M502.19,82.45c0,.31-.26,.56-.56,.55-.31,0-.55-.26-.55-.57l.04-5.49c.34-.15,.71-.26,1.07-.3,.03,.07,.04,.14,.04,.21l-.04,5.59h0Z"/>
          <path class="cls-1" d="M502.93,65.89c-.64-.01-1.16,.55-1.18,1.26-.01,.71,.49,1.3,1.11,1.31,.63,.01,1.16-.55,1.18-1.26,.01-.71-.49-1.3-1.11-1.31"/>
          <path class="cls-1" d="M506.15,75.2c.12,.28,.45,.42,.73,.3,.28-.12,.42-.45,.3-.73l-1.91-4.56h0c-.18-.43-.53-.72-.93-.91-.03-.01-.07-.03-.1-.05l-.09,.29c.25,.28,.42,.61,.51,.98h0v.03c.14,.68,.27,1.34,.4,2.02l1.09,2.61h0Z"/>
          <path class="cls-1" d="M499.3,75.04c-.14,.28-.47,.4-.74,.27s-.4-.46-.26-.74l2.11-4.47h0c.2-.42,.57-.69,.97-.86,.03-.01,.07-.03,.11-.04l.08,.3c-.26,.26-.45,.59-.55,.95h0s0,.03,0,.03c-.16,.67-.33,1.33-.49,2l-1.21,2.57h0Z"/>
        </g>
        <path class="cls-1" d="M556.34,85.1c.98,.15,1.91-.11,2.65-.65,.39-.29,.73-.66,.98-1.09l-.08,.84c-.02,.21,0,.4,.07,.58-.14,.14-.3,.26-.45,.38-.92,.67-2.09,.99-3.3,.8-1.21-.19-2.23-.84-2.9-1.76s-.99-2.09-.81-3.3c.11-.67,.35-1.29,.71-1.81,.14,.27,.38,.48,.66,.58-.25,.4-.43,.86-.51,1.36-.15,.98,.11,1.91,.65,2.65s1.36,1.26,2.33,1.42m2.65-16.61c-.79-.31-1.7,.16-2.05,1.03-.34,.88,0,1.85,.79,2.16s1.7-.16,2.05-1.03c.34-.88,0-1.85-.79-2.16Zm.07,4.9c.09,.2,.13,.42,.11,.65-.07,.71-.13,1.42-.19,2.12l-.1,1.06c-.43-.07-.88-.1-1.32-.09-.74,.02-1.48,.14-2.15,.36l-.07-2.37,2.88-.83c.44-.12,.75-.48,.84-.9h0Zm-1.36-.94c.39-.11,.8,.11,.92,.51s-.11,.8-.51,.92l-3.21,.92,.11,3.74c0,.41-.31,.75-.72,.76s-.75-.31-.76-.72l-.12-4.28c-.02-.34,.19-.67,.53-.77l3.76-1.07h0Zm-1.93,6.8l.08,.02c-.14-.16-.25-.33-.32-.52-.04-.1-.07-.2-.09-.3l-.02-.49c.66-.23,1.4-.36,2.15-.37,.43,0,.85,.02,1.27,.08-.02,.21-.04,.43-.06,.63,0,.03,0,.07-.02,.11l2.94,.27c.46,.04,.79,.45,.75,.9v.03l-.49,4.81c-.05,.46-.46,.79-.91,.74-.46-.05-.79-.46-.74-.91l.41-3.99-.66-.07c.11,.16,.16,.37,.13,.58-.07,.44-.48,.75-.93,.68l-3.76-.58c-.44-.07-.75-.48-.68-.93,.07-.44,.48-.75,.93-.68h0Zm.33,7.44c1.41,.22,2.78-.16,3.85-.94,.16-.12,.32-.25,.47-.39,.12,.09,.27,.16,.43,.2-.2,.2-.41,.38-.63,.54-1.16,.84-2.64,1.25-4.17,1.02-1.53-.24-2.82-1.07-3.67-2.23-.85-1.16-1.25-2.64-1.02-4.17,.2-1.29,.82-2.41,1.71-3.24l.02,.61c-.66,.73-1.13,1.66-1.3,2.7-.22,1.41,.16,2.78,.94,3.85,.78,1.07,1.97,1.84,3.39,2.05h0Z"/>
      </g>
    </g>
  </g>
</svg>