<?xml version="1.0" encoding="utf-8"?>
<!-- Generator: Adobe Illustrator 16.0.0, SVG Export Plug-In . SVG Version: 6.00 Build 0)  -->
<!DOCTYPE svg PUBLIC "-//W3C//DTD SVG 1.1//EN" "http://www.w3.org/Graphics/SVG/1.1/DTD/svg11.dtd">
<svg version="1.1" id="objects" xmlns="http://www.w3.org/2000/svg" xmlns:xlink="http://www.w3.org/1999/xlink" x="0px" y="0px"
	 width="595.279px" height="841.89px" viewBox="0 0 595.279 841.89" enable-background="new 0 0 595.279 841.89"
	 xml:space="preserve">
<path id="L-12" fill="#15ABFF" d="M336.362,109.716h-38.687c-5.522,0-10-4.477-10-10c0-5.523,4.478-10,10-10h38.687
	c5.522,0,10,4.477,10,10C346.362,105.239,341.885,109.716,336.362,109.716z"/>
<path id="L-11" fill="#15ABFF" d="M297.602,109.716h-38.686c-5.522,0-10-4.477-10-10c0-5.523,4.478-10,10-10h38.686
	c5.523,0,10,4.477,10,10C307.602,105.239,303.126,109.716,297.602,109.716z"/>
<path id="L-10" fill="#15ABFF" d="M297.788,656.779H109.473c-5.523,0-10-4.479-10-10c0-5.523,4.477-10,10-10h188.313
	c5.523,0,10,4.477,10,10C307.787,652.3,303.311,656.779,297.788,656.779z"/>
<path id="L-9" fill="#15ABFF" d="M568.64,656.779H297.788c-5.522,0-10-4.479-10-10c0-5.523,4.478-10,10-10H568.64
	c5.521,0,10,4.477,10,10C578.64,652.3,574.162,656.779,568.64,656.779z"/>
<path id="L-8" fill="#15ABFF" d="M297.788,656.779c-5.522,0-10-4.479-10-10V506.037c0-5.521,4.478-10,10-10c5.523,0,10,4.479,10,10
	v140.742C307.788,652.3,303.311,656.779,297.788,656.779z"/>
<path id="L-7" fill="#15ABFF" d="M297.788,516.037c-5.52,0-9.996-4.473-10-9.992l-0.147-203.161
	c-0.004-5.523,4.47-10.003,9.992-10.007c0.003,0,0.006,0,0.008,0c5.52,0,9.996,4.472,10,9.993l0.147,203.161
	c0.004,5.521-4.471,10.004-9.993,10.008C297.793,516.037,297.79,516.037,297.788,516.037z"/>
<path id="L-6" fill="#15ABFF" d="M297.788,312.876c-5.52,0-9.996-4.472-10-9.993l-0.147-203.16
	c-0.004-5.523,4.47-10.003,9.992-10.007c0.003,0,0.006,0,0.008,0c5.52,0,9.996,4.472,10,9.993l0.147,203.16
	c0.004,5.523-4.471,10.003-9.993,10.007C297.793,312.876,297.79,312.876,297.788,312.876z"/>
<path id="L-5" fill="#15ABFF" d="M109.473,690.945c-5.523,0-10-4.479-10-10v-34.166c0-5.523,4.477-10,10-10c5.522,0,10,4.477,10,10
	v34.166C119.473,686.466,114.996,690.945,109.473,690.945z"/>
<path id="L-4" fill="#15ABFF" d="M336.473,516.037h-38.687c-5.522,0-10-4.479-10-10s4.478-10,10-10h38.687c5.521,0,10,4.479,10,10
	S341.995,516.037,336.473,516.037z"/>
<path id="L-3" fill="#15ABFF" d="M297.714,516.037h-38.685c-5.523,0-10-4.479-10-10s4.477-10,10-10h38.685
	c5.523,0,10.001,4.479,10.001,10S303.237,516.037,297.714,516.037z"/>
<path id="L-2" fill="#15ABFF" d="M336.473,312.876h-38.687c-5.522,0-10-4.477-10-10s4.478-10,10-10h38.687c5.521,0,10,4.477,10,10
	S341.995,312.876,336.473,312.876z"/>
<path id="L-1" fill="#15ABFF" d="M297.714,312.876h-38.685c-5.523,0-10-4.477-10-10s4.477-10,10-10h38.685
	c5.523,0,10.001,4.477,10.001,10S303.237,312.876,297.714,312.876z"/>
</svg>
